<?xml version="1.0" encoding="UTF-8"?>
<svg width="200px" height="200px" viewBox="0 0 200 200" version="1.1" xmlns="http://www.w3.org/2000/svg" xmlns:xlink="http://www.w3.org/1999/xlink">
    <!-- Generator: Sketch 63.1 (92452) - https://sketch.com -->
    <title>app</title>
    <desc>Created with Sketch.</desc>
    <g id="app" stroke="none" stroke-width="1" fill="none" fill-rule="evenodd">
        <g id="icon" transform="translate(14.000000, 0.000000)" fill-rule="nonzero">
            <path d="M0,7.5757632 L0,192.424237 C0,196.363632 3.93870618,200 7.57443797,200 L165.425562,200 C169.364268,200 173,196.060605 173,192.424237 L173,43.9394422 L129.068225,0.303105528 L7.57422316,0 C3.63573179,0 0,3.9393953 0,7.5757632 Z" id="路径" fill="#4184A7"></path>
            <path d="M129,0 L129,34.5 C129,38.3999945 132.964553,42 136.624125,42 L172,42 L129,0 L129,0 Z" id="路径" fill="#96D6FF"></path>
        </g>
        <path d="M115.500146,69 C111.480058,69.1553657 106.605459,71.6800586 103.711734,75.0592629 C101.128779,78.0500529 98.8565558,82.8469693 99.4780186,87.4302959 C103.964204,87.7798687 108.547492,85.1386516 111.344094,81.7594473 C114.140677,78.3996637 116.024486,73.6998508 115.500127,69 L115.500146,69 Z M113.965909,88.2847314 C108.27564,88.3624143 103.012646,92.0135086 100.099538,92.0135086 C96.9339619,92.0135086 92.0593626,88.4400972 86.8934526,88.5372007 C80.0962026,88.6343043 73.8426946,92.4796057 70.346966,98.5583083 C63.2972467,110.793358 68.5408396,128.932287 75.4157725,138.87573 C78.7755561,143.730909 82.7762232,149.207588 88.0586765,148.993941 C93.127483,148.799734 95.0501337,145.711841 101.167659,145.711841 C107.285184,145.711841 109.013627,148.993941 114.373744,148.896838 C119.830965,148.799734 123.287852,143.925135 126.628234,139.069937 C130.473536,133.43793 132.066034,127.980691 132.163138,127.68938 C132.046614,127.631118 121.539969,123.61103 121.423521,111.492523 C121.326417,101.374312 129.696745,96.4996936 130.065739,96.2667019 C125.365926,89.3917691 118.044335,88.440154 115.422539,88.3236298 C114.937021,88.304209 114.451503,88.2847314 113.965985,88.2847314 L113.965985,88.2847314 L113.965909,88.2847314 Z" id="形状" fill="#FFFFFF" fill-rule="nonzero"></path>
    </g>
</svg>