<?xml version="1.0" encoding="UTF-8"?>
<svg width="200px" height="200px" viewBox="0 0 200 200" version="1.1" xmlns="http://www.w3.org/2000/svg" xmlns:xlink="http://www.w3.org/1999/xlink">
    <!-- Generator: Sketch 63.1 (92452) - https://sketch.com -->
    <title>book</title>
    <desc>Created with Sketch.</desc>
    <g id="book" stroke="none" stroke-width="1" fill="none" fill-rule="evenodd">
        <g id="icon" transform="translate(14.000000, 0.000000)" fill-rule="nonzero">
            <path d="M0,7.5757632 L0,192.424237 C0,196.363632 3.93870618,200 7.57443797,200 L165.425562,200 C169.364268,200 173,196.060605 173,192.424237 L173,43.9394422 L129.068225,0.303105528 L7.57422316,0 C3.63573179,0 0,3.9393953 0,7.5757632 Z" id="路径" fill="#40BA57"></path>
            <path d="M129,0 L129,34.5 C129,38.3999945 132.964553,42 136.624125,42 L172,42 L129,0 L129,0 Z" id="路径" fill="#AAFF96"></path>
        </g>
        <path d="M137.852602,85.4062895 C139.102602,87.1875402 139.383854,89.2031623 138.69635,91.453164 L125.805717,133.921878 C125.211967,135.921882 124.016657,137.601561 122.21978,138.960942 C120.422902,140.320314 118.508843,141 116.477594,141 L73.2119461,141 C70.8056995,141 68.4853889,140.164061 66.2510141,138.492191 C64.0166394,136.820312 62.4619508,134.765627 61.5869565,132.328126 C60.8369565,130.234378 60.8057067,128.250001 61.4932063,126.375005 C61.4932063,126.250005 61.5400813,125.82813 61.6338316,125.109378 C61.7275818,124.390628 61.7900814,123.812506 61.8213312,123.375 C61.8525812,123.125 61.8057062,122.789063 61.6807067,122.367189 C61.5557067,121.945314 61.5088316,121.640627 61.5400814,121.453124 C61.6025814,121.109373 61.727581,120.781249 61.9150814,120.468749 C62.102581,120.156249 62.3603936,119.789062 62.6885185,119.367184 C63.0166435,118.945309 63.2744561,118.578122 63.4619557,118.26562 C64.1807051,117.078119 64.8838276,115.64843 65.5713313,113.97656 C66.2588309,112.304681 66.7275778,110.875 66.9775844,109.6875 C67.0713346,109.375 67.0791472,108.90625 67.0010218,108.281247 C66.9228969,107.656247 66.9150843,107.218745 66.9775844,106.968747 C67.0713346,106.624997 67.3369591,106.187497 67.7744595,105.656247 C68.2119591,105.124998 68.4775844,104.765626 68.5713346,104.578119 C69.2275844,103.453118 69.8838342,102.015619 70.540084,100.265623 C71.1963339,98.515626 71.5869584,97.1093729 71.7119575,96.0468716 C71.7432076,95.7656218 71.704145,95.2656218 71.5947702,94.5468732 C71.4853955,93.8281238 71.4932073,93.3906267 71.6182077,93.2343736 C71.7432077,92.8281238 72.086958,92.3515618 72.6494551,91.8046842 C73.2119547,91.2578091 73.5557033,90.9062454 73.6807025,90.7500005 C74.2744527,89.9375009 74.9385119,88.6171886 75.6728882,86.7890653 C76.4072629,84.960942 76.8369523,83.453126 76.9619515,82.2656256 C76.9932015,82.0156256 76.9463265,81.6171885 76.8213262,81.0703158 C76.6963262,80.5234407 76.6650764,80.1093774 76.727576,79.8281251 C76.790076,79.5781251 76.9307009,79.2968753 77.1494511,78.9843766 C77.3682013,78.671877 77.6494511,78.3125014 77.9931997,77.9062484 C78.3369499,77.5 78.6025744,77.1718736 78.7900748,76.9218736 C79.0400748,76.5468736 79.2978875,76.0703075 79.563512,75.4921842 C79.8291373,74.9140593 80.063512,74.3671834 80.2666369,73.8515597 C80.4697618,73.3359352 80.7197618,72.7734315 81.0166369,72.1640625 C81.313512,71.5546878 81.6181989,71.0546886 81.9307026,70.6640641 C82.2432022,70.2734388 82.6572647,69.9062515 83.1728933,69.5624996 C83.6885186,69.2187494 84.2510215,69.0390624 84.8603905,69.0234371 C85.4697652,69.0078121 86.2119534,69.0937496 87.0869558,69.2812498 L87.0400809,69.4218751 C88.2275813,69.1406253 89.0244573,69 89.4307087,69 L125.102562,69 C127.415063,69 129.196314,69.8750025 130.446314,71.6249992 C131.696314,73.374996 131.977566,75.406245 131.290062,77.7187463 L118.446351,120.187461 C117.32135,123.906207 116.204167,126.304644 115.094793,127.382772 C113.985419,128.4609 111.977606,128.99996 109.071355,128.99996 L68.3370269,128.99996 C67.4932784,128.99996 66.8995281,129.234335 66.5557763,129.703085 C66.2120261,130.203085 66.1964016,130.874959 66.5089013,131.718707 C67.2589013,133.906209 69.508898,134.999956 73.2588981,134.999956 L116.524546,134.999956 C117.430794,134.999956 118.305796,134.757769 119.149545,134.273394 C119.993294,133.78902 120.540171,133.140584 120.79017,132.328081 L134.852701,86.0624696 C135.071451,85.37497 135.149576,84.4843447 135.087075,83.3905977 C136.274576,83.859348 137.196451,84.5312255 137.852701,85.4062198 L137.852602,85.4062895 Z M87.977616,85.500047 C87.852616,85.9062896 87.8838658,86.2578516 88.0713662,86.5547234 C88.2588658,86.8515985 88.5713662,87.0000357 89.0088683,87.0000357 L117.508895,87.0000357 C117.915145,87.0000357 118.313582,86.8515985 118.704205,86.5547234 C119.09483,86.2578483 119.352642,85.9062863 119.477642,85.500047 L120.462017,82.500047 C120.587017,82.0937932 120.555767,81.7422303 120.368267,81.4453593 C120.180767,81.1484842 119.868267,81.000047 119.430765,81.000047 L90.9307377,81.000047 C90.5244879,81.000047 90.1260508,81.1484842 89.7354279,81.4453593 C89.3448034,81.7422344 89.0869907,82.0937964 88.9619907,82.500047 L87.977616,85.500047 Z M84.0869898,97.500067 C83.9619898,97.9063095 83.9932396,98.2578716 84.18074,98.5547434 C84.3682396,98.8516185 84.68074,99.0000556 85.1182421,99.0000556 L113.618269,99.0000556 C114.024519,99.0000556 114.422956,98.8516185 114.813579,98.5547434 C115.204203,98.2578683 115.462016,97.9063062 115.587016,97.500067 L116.571391,94.500067 C116.696391,94.0938131 116.665141,93.7422511 116.47764,93.4453792 C116.290141,93.1485041 115.97764,93.000067 115.540138,93.000067 L87.0401115,93.000067 C86.6338617,93.000067 86.2354245,93.1485041 85.8448017,93.4453792 C85.4541764,93.7422544 85.1963645,94.0938164 85.0713645,94.500067 L84.0869898,97.500067 Z" id="形状" fill="#FFFFFF" fill-rule="nonzero"></path>
    </g>
</svg>