<?xml version="1.0" encoding="UTF-8"?>
<svg width="200px" height="200px" viewBox="0 0 200 200" version="1.1" xmlns="http://www.w3.org/2000/svg" xmlns:xlink="http://www.w3.org/1999/xlink">
    <!-- Generator: Sketch 57.1 (83088) - https://sketch.com -->
    <title>dmg</title>
    <desc>Created with Sketch.</desc>
    <g id="dmg" stroke="none" stroke-width="1" fill="none" fill-rule="evenodd">
        <g transform="translate(14.000000, 0.000000)" fill-rule="nonzero">
            <path d="M7.66758867,0 C3.83378451,0 0,3.8278542 0,7.65559066 L0,192.344507 C0,196.172264 3.83380416,200 7.66758867,200 L165.332411,200 C169.166215,200 173,196.172244 173,192.344507 L173,43.5407058 L128.911291,0 L7.66749039,0 L7.66758867,0 Z" id="路径" fill="#00BDFF"></path>
            <path d="M129,0 L129,35.4395764 C129,39.2197979 132.780318,43 136.56052,43 L172,43 L129,0 L129,0 Z" id="路径" fill="#8DE1FF"></path>
            <path d="M85.9999006,98.7019448 C93.7524745,98.7019448 100.051457,104.900609 100.051457,112.529759 L127.185416,112.529759 C127.185416,90.119269 108.773045,72 85.9998609,72 C63.226756,72 44.8143062,90.1191908 44.8143062,112.529759 L71.4637477,112.529759 C71.4637477,104.900629 78.2472473,98.7019448 85.999841,98.7019448 L85.9999006,98.7019448 Z M129.60824,122.066234 L42.3917597,122.066234 C40.4536153,122.066234 39,123.496698 39,125.403987 L39,140.662247 C39,142.569531 40.4536093,144 42.3917597,144 L129.60824,144 C131.546385,144 133,142.569536 133,140.662247 L133,125.403987 C133,123.496704 131.546391,122.066234 129.60824,122.066234 Z M102.958799,138.75496 C99.567039,138.75496 97.1443733,136.370851 97.1443733,133.033117 C97.1443733,129.695364 99.5670589,127.311275 102.958799,127.311275 C106.350558,127.311275 108.773224,129.695384 108.773224,133.033117 C108.288689,136.37087 105.866002,138.75496 102.958799,138.75496 Z M119.433021,138.75496 C116.041261,138.75496 113.618595,136.370851 113.618595,133.033117 C113.618595,129.695364 116.041281,127.311275 119.433021,127.311275 C122.82478,127.311275 125.247446,129.695384 125.247446,133.033117 C125.247446,136.37087 122.824761,138.75496 119.433021,138.75496 Z" id="形状" fill="#FFFFFF"></path>
        </g>
    </g>
</svg>