<?xml version="1.0" encoding="UTF-8"?>
<svg width="200px" height="200px" viewBox="0 0 200 200" version="1.1" xmlns="http://www.w3.org/2000/svg" xmlns:xlink="http://www.w3.org/1999/xlink">
    <!-- Generator: Sketch 57.1 (83088) - https://sketch.com -->
    <title>图片</title>
    <desc>Created with Sketch.</desc>
    <g id="图片" stroke="none" stroke-width="1" fill="none" fill-rule="evenodd">
        <g id="icon" transform="translate(14.000000, 0.000000)" fill-rule="nonzero">
            <path d="M0,7.5757632 L0,192.424237 C0,196.363632 3.93870618,200 7.57443797,200 L165.425562,200 C169.364268,200 173,196.060605 173,192.424237 L173,43.9394422 L129.068225,0.303105528 L7.57422316,0 C3.63573179,0 0,3.9393953 0,7.5757632 Z" id="路径" fill="#FE7846"></path>
            <path d="M129,0 L129,34.5 C129,38.3999945 132.964553,42 136.624125,42 L172,42 L129,0 L129,0 Z" id="路径" fill="#FF9999"></path>
            <path d="M76.5701409,129.54295 L65.4793489,114.352951 C64.0099664,112.340565 61.6277993,112.340715 60.1584168,114.352951 L39.7123751,142.35618 C38.2429925,144.368566 39.1197362,146 41.6704962,146 L135.34695,146 C137.899218,146 138.756358,144.372148 137.27265,142.364091 L104.871136,98.5109169 C103.377777,96.4897237 100.982038,96.5030093 99.49848,98.5109169 L76.5702917,129.54295 L76.5701409,129.54295 Z M52,84 L52,84 C52,88.9705576 56.0294425,93 61,93 C65.9705575,93 70,88.9705576 70,84 C70,84 70,84 70,84 L70,84 C70,79.0294424 65.9705575,75 61,75 C56.0294425,75 52,79.0294424 52,84 C52,84 52,84 52,84 L52,84 Z" id="形状" fill="#FFFFFF"></path>
        </g>
    </g>
</svg>