<?xml version="1.0" encoding="UTF-8"?>
<svg width="200px" height="200px" viewBox="0 0 200 200" version="1.1" xmlns="http://www.w3.org/2000/svg" xmlns:xlink="http://www.w3.org/1999/xlink">
    <!-- Generator: Sketch 57.1 (83088) - https://sketch.com -->
    <title>jar</title>
    <desc>Created with Sketch.</desc>
    <g id="jar" stroke="none" stroke-width="1" fill="none" fill-rule="evenodd">
        <g id="icon" transform="translate(14.000000, 0.000000)" fill-rule="nonzero">
            <path d="M0,7.65559066 L0,192.344507 C0,196.172264 3.83380416,200 7.66758867,200 L165.332411,200 C169.166215,200 173,196.172244 173,192.344507 L173,43.5407058 L128.911291,0 L7.66749039,0 C3.83378451,0 0,3.8278542 0,7.65559066 Z" id="路径" fill="#FF4800"></path>
            <path d="M129,0 L129,35.4395764 C129,39.2197979 132.780318,43 136.56052,43 L172,43 L129,0 L129,0 Z" id="路径" fill="#FFC8B2"></path>
        </g>
        <path d="M66.360102,91.1491396 L75.6016571,91.1491396 C75.2192479,93.8897387 75.1555131,95.7380497 75.1555131,99.4346718 L75.1555131,129.581262 C75.1555131,133.341619 74.0082855,135.954748 71.5226259,137.803059 C69.4193754,139.332696 66.2326322,140.224984 62.6634799,140.224984 C59.6042065,140.224984 56.9910771,139.587635 54.7603569,138.312938 C53.2307202,137.42065 52.402167,136.655832 51,134.871256 L58.2657744,130.664755 C59.4130019,132.83174 60.8151689,133.851498 62.9184194,133.851498 C65.5952836,133.851498 66.8699809,132.449331 66.8699809,129.453792 L66.8699809,99.4346718 C66.8699809,95.7380497 66.7425112,93.5710644 66.360102,91.1491396 Z M66.360102,77 L75.7291268,77 L75.7291268,85.0943276 L66.360102,85.0943276 L66.360102,77 Z M108.106437,127.732951 L108.106437,123.590185 C105.557043,126.01211 103.963671,126.904398 101.350542,127.605481 C99.5022307,128.11536 97.4627151,128.3703 95.4231995,128.3703 C87.6475462,128.3703 82.9311663,124.355003 82.9311663,117.662843 C82.9311663,113.201402 85.7355003,109.186106 90.1332059,107.337795 C94.275972,105.616953 98.9923518,104.979605 108.106437,104.7884 L108.106437,101.537922 C108.106437,97.8413002 105.620778,95.9292543 100.776928,95.9292543 C98.2275335,95.9292543 95.6144041,96.6303378 94.1485022,97.7775653 C92.9375398,98.6698534 92.3639261,99.5621415 91.5991077,101.856597 L83.4410453,100.390695 C84.9069471,96.6940727 86.0541746,95.0369662 88.4760994,93.3161249 C91.5991077,91.0216699 95.16826,90.0656469 100.649458,90.0656469 C106.768005,90.0656469 110.464627,91.1491396 113.205226,93.8260038 C115.372212,95.8655194 116.200765,98.2874442 116.200765,102.621415 L116.200765,119.766093 C116.200765,123.144041 116.328235,124.864882 116.710644,127.732951 L108.106437,127.732951 Z M108.106437,113.520076 L108.106437,110.333333 C95.9330784,110.588273 91.1529637,112.691523 91.1529637,117.662843 C91.1529637,120.658381 93.3836839,122.506692 96.9528362,122.506692 C100.330784,122.506692 103.644997,121.231995 105.811982,119.128744 C107.341619,117.599108 108.106437,115.750797 108.106437,113.520076 Z M151,91.1491396 L148.76928,99.1797323 C146.092416,98.414914 144.753983,98.1599745 143.096877,98.1599745 C139.910134,98.1599745 137.488209,99.1797323 135.703633,101.282983 C134.110261,103.131294 133.472913,104.597196 133.090504,107.656469 L133.090504,119.447419 C133.090504,122.889101 133.217973,124.737412 133.536648,127.732951 L124.422562,127.732951 C124.741236,124.609943 124.868706,122.761632 124.868706,119.447419 L124.868706,99.4346718 C124.868706,95.5468451 124.804971,93.762269 124.422562,91.1491396 L133.090504,91.1491396 L133.090504,97.1402167 C135.384959,92.6150414 139.33652,90.4480561 145.072658,90.4480561 C146.602294,90.4480561 148.131931,90.6392607 151,91.1491396 Z" fill="#FFFFFF" fill-rule="nonzero"></path>
    </g>
</svg>