<?xml version="1.0" encoding="UTF-8"?>
<svg width="200px" height="200px" viewBox="0 0 200 200" version="1.1" xmlns="http://www.w3.org/2000/svg" xmlns:xlink="http://www.w3.org/1999/xlink">
    <!-- Generator: Sketch 63.1 (92452) - https://sketch.com -->
    <title>java</title>
    <desc>Created with Sketch.</desc>
    <g id="java" stroke="none" stroke-width="1" fill="none" fill-rule="evenodd">
        <g id="icon" transform="translate(14.000000, 0.000000)" fill-rule="nonzero">
            <path d="M0,7.5757632 L0,192.424237 C0,196.363632 3.93870618,200 7.57443797,200 L165.425562,200 C169.364268,200 173,196.060605 173,192.424237 L173,43.9394422 L129.068225,0.303105528 L7.57422316,0 C3.63573179,0 0,3.9393953 0,7.5757632 Z" id="路径" fill="#3173B7"></path>
            <path d="M129,0 L129,34.5 C129,38.3999945 132.964553,42 136.624125,42 L172,42 L129,0 L129,0 Z" id="路径" fill="#6FB6FF"></path>
        </g>
        <path d="M134.62571,142.476265 C131.519531,151.782201 119.59256,152.431159 109.347841,154 L99.815085,154 C91.4983383,153.092719 83.49662,151.870409 76.7550148,148.896542 C94.3839974,153.136823 120.077704,152.821794 132.407911,143.799384 C133.075771,143.314241 133.693226,142.362855 134.62571,142.476265 Z M80.9700932,135.62125 C78.8657043,136.150498 73.4094144,135.40073 73.2077963,138.280089 C73.1447907,139.388988 75.0727638,140.699506 76.3139752,141.165748 C83.540724,143.887592 98.0635277,144.316031 110.015701,142.936207 C115.560198,142.293549 125.981334,140.428582 124.645614,134.73287 C126.308963,134.934488 127.795897,135.992983 127.972313,137.618529 C128.640173,143.730078 114.583611,146.307009 108.906801,146.924465 C96.5576925,148.279086 81.1213068,148.014463 71.6578572,144.712966 C68.5768806,143.64187 64.8532463,141.669793 65.0044599,138.727429 C65.2753842,133.756283 77.2464589,132.382759 80.9700932,135.62125 Z M87.4029707,128.967853 C88.0897323,129.188373 87.1509481,129.566407 87.1761503,129.849932 C89.1923313,133.359347 99.1724273,132.118136 104.250683,130.965132 C105.271375,130.71941 106.292066,130.013747 107.130042,130.083053 C109.706973,130.253168 110.67726,132.937209 112.895059,133.403451 C105.825825,137.725639 88.6882861,139.477196 81.6379531,134.06501 C81.3040232,130.120856 84.4732077,129.679817 87.4029707,128.967853 Z M131.299011,116.328918 C131.677045,124.047111 123.234287,128.369299 117.110138,128.741032 C119.945392,126.04439 127.443065,121.697 125.981334,115.446839 C125.37648,112.914012 122.232497,111.389275 118.660077,112.12014 C123.227987,108.21379 130.965081,109.744827 131.299011,116.328918 Z M84.5173116,119.876137 C85.5632055,120.008448 83.786446,120.632204 84.076272,121.432376 C87.8881142,125.200115 99.7520793,124.135319 105.580102,122.982315 C106.802412,122.736593 108.018421,122.005728 108.906801,122.100236 C111.1246,122.295554 112.542228,124.872485 114.451299,125.200115 C107.709694,128.236987 94.6927251,129.673516 85.1851716,127.858953 C82.727951,127.392711 78.4435664,126.063292 78.3112545,124.091215 C78.1096364,121.407174 82.5452346,120.279373 84.5173116,119.876137 Z M88.9121766,109.872065 L89.162,109.901 L88.9233432,110.007585 C86.6226488,110.983756 83.0150768,111.244137 81.4111328,113.44956 C83.0996844,114.709673 85.5632055,114.665569 87.8440103,114.778979 C97.2003502,115.201117 108.906801,114.400945 116.889618,113.00852 C117.154242,113.581872 115.780718,114.583661 114.892338,115.220019 C109.858187,118.90585 94.2075816,119.945443 83.4084121,119.214577 C79.798188,118.968855 71.5255453,118.01747 71.4373374,114.778979 C71.3239272,110.853727 81.4552367,110.431589 85.6262112,110.122861 C86.3867795,110.064356 87.761235,109.772247 88.9121766,109.872065 Z M119.978,81.084 L119.989496,81.0772535 C117.444068,82.8729147 114.961645,84.4039522 112.2335,86.6217513 C110.173215,88.3040023 106.44328,90.6100093 106.247962,93.7161882 C105.932934,98.4416124 113.210087,102.807904 109.347841,108.793442 C107.88611,111.074246 105.403687,112.050834 102.253404,113.44956 C101.87537,112.756497 103.072477,112.189447 103.582823,111.45228 C108.421658,104.446051 98.5549718,102.121143 99.815085,93.4956684 C101.021521,85.2682752 110.606295,82.3318185 119.63347,81.1300975 L119.978,81.084 Z M105.580102,66 C107.130042,67.4680318 108.238941,70.1898761 108.238941,73.0944369 C108.238941,81.6758073 99.1535256,86.640653 94.7179274,92.3867688 C93.7413397,93.6720842 92.474926,95.6441612 92.5001283,97.7044462 C92.5442322,102.385766 97.3767661,107.615236 99.1535256,111.45228 C96.0473467,109.410897 92.2796085,106.689053 89.6144692,103.469464 C86.9556305,100.281378 84.2967918,95.0897115 86.7351107,90.6163099 C90.3894388,83.8747047 101.276816,79.8612444 105.132762,72.6596979 C106.071547,70.9018401 106.802412,68.2177991 105.580102,66 Z" id="形状结合" fill="#FFFFFF" fill-rule="nonzero"></path>
    </g>
</svg>