<?xml version="1.0" encoding="UTF-8"?>
<svg width="200px" height="200px" viewBox="0 0 200 200" version="1.1" xmlns="http://www.w3.org/2000/svg" xmlns:xlink="http://www.w3.org/1999/xlink">
    <!-- Generator: Sketch 63.1 (92452) - https://sketch.com -->
    <title>js</title>
    <desc>Created with Sketch.</desc>
    <g id="js" stroke="none" stroke-width="1" fill="none" fill-rule="evenodd">
        <g id="icon" transform="translate(14.000000, 0.000000)" fill-rule="nonzero">
            <path d="M0,7.5757632 L0,192.424237 C0,196.363632 3.93870618,200 7.57443797,200 L165.425562,200 C169.364268,200 173,196.060605 173,192.424237 L173,43.9394422 L129.068225,0.303105528 L7.57422316,0 C3.63573179,0 0,3.9393953 0,7.5757632 Z" id="路径" fill="#008AFC"></path>
            <path d="M129,0 L129,34.5 C129,38.3999945 132.964553,42 136.624125,42 L172,42 L129,0 L129,0 Z" id="路径" fill="#96CFFF"></path>
            <path d="M135.594274,120.360944 C134.357982,113.561339 130.030961,107.688953 116.740824,102.434712 C112.104729,100.271202 107.159562,98.7258368 105.614197,95.3260342 C104.996051,93.1625235 104.996051,92.2353046 105.305124,90.9990128 C106.232343,86.9810643 110.868437,85.7447725 114.886386,86.9810643 C117.35897,87.5992102 119.52248,89.453648 121.067845,92.5443776 C127.558377,88.2173562 127.558377,88.2173562 131.885399,85.4356995 C130.340034,82.9631158 129.412815,81.726824 128.176523,80.4905322 C124.158575,76.1635107 118.904334,74 110.559364,74 L106.232343,74.6181459 C101.905322,75.5453648 97.8873731,78.0179485 95.4147894,80.7996051 C88.3061114,88.8355021 90.4696221,102.743785 98.814592,108.616172 C107.468635,115.106704 119.831553,116.342996 121.376918,122.215382 C122.922283,129.633133 115.813605,131.796644 109.014,130.869425 C104.068832,129.633133 101.287176,127.160549 98.1964461,122.524455 L86.7607466,129.014987 C87.9970384,132.105716 89.5424032,133.342008 91.7059139,135.814592 C102.523468,146.632146 129.876424,146.323073 134.821592,129.633133 C135.130665,129.014987 136.366957,125.306111 135.439738,119.433725 C135.285201,120.051871 135.594274,120.360944 135.594274,120.360944 L135.594274,120.360944 Z M79.188459,75.0817554 L65.2801758,75.0817554 L65.2801758,111.397828 C65.2801758,119.124652 65.5892488,126.23333 64.352957,128.396841 C62.1894462,132.723862 56.9352059,132.105716 54.4626222,131.487571 C51.8355021,130.251279 50.5992102,128.705914 49.0538454,126.23333 C48.7447725,125.306111 48.4356995,124.687965 48.4356995,124.687965 L37,131.796644 C38.8544378,135.814592 41.6360944,139.214395 45.3449699,141.377905 C50.5992102,144.468635 57.7078883,145.704927 65.4347123,143.850489 C70.3798797,142.305124 74.3978282,139.523468 76.8704118,135.196446 C79.9611414,129.32406 79.3429955,122.215382 79.3429955,114.179485 L79.3429955,75.3908283 C79.188459,75.3908283 79.188459,75.0817554 79.188459,75.0817554 Z" id="形状" fill="#FFFFFF"></path>
        </g>
    </g>
</svg>