<?xml version="1.0" encoding="UTF-8"?>
<svg width="200px" height="200px" viewBox="0 0 200 200" version="1.1" xmlns="http://www.w3.org/2000/svg" xmlns:xlink="http://www.w3.org/1999/xlink">
    <!-- Generator: Sketch 57.1 (83088) - https://sketch.com -->
    <title>json</title>
    <desc>Created with Sketch.</desc>
    <g id="json" stroke="none" stroke-width="1" fill="none" fill-rule="evenodd">
        <g id="icon" transform="translate(14.000000, 0.000000)" fill-rule="nonzero">
            <path d="M7.66758867,0 C3.83378451,0 0,3.8278542 0,7.65559066 L0,192.344507 C0,196.172264 3.83380416,200 7.66758867,200 L165.332411,200 C169.166215,200 173,196.172244 173,192.344507 L173,43.5407058 L128.911291,0 L7.66749039,0 L7.66758867,0 Z" id="路径" fill="#DD697C"></path>
            <path d="M129,0 L129,35.4395764 C129,39.2197979 132.780318,43 136.56052,43 L172,43 L129,0 L129,0 Z" id="路径" fill="#FFCAD3"></path>
            <path d="M59.375005,73 L67.1250051,73 L67.1250051,80.7778869 L59.375005,80.7778869 L59.375005,100.222288 L59.375005,100.222288 C59.375005,104.517833 55.9052136,108.000057 51.625005,108.000057 L51.6250046,108.000057 C55.9052133,108.000057 59.3750047,111.482282 59.3750047,115.777827 L59.3750047,135.222228 L67.1250051,135.222228 L67.1250051,143 L59.3750047,143 C55.2287561,141.949998 51.6250046,139.5 51.6250046,135.222228 L51.6250046,119.666653 L51.6250046,119.666653 C51.6250046,115.371107 48.1552132,111.888883 43.8750046,111.888883 C43.8750046,111.888883 43.8750046,111.888883 43.8750046,111.888883 L40,111.888883 L40,104.111113 L43.8750046,104.111113 L43.8750042,104.111113 C48.1552129,104.111114 51.6250043,100.628889 51.6250043,96.3333439 L51.6250043,80.7777684 L51.6250043,80.7777695 C51.6250036,76.4822242 55.0947957,73 59.3750043,73 L59.375005,73 Z M113.624996,73 L113.624995,73 C117.905204,73 121.374995,76.4822242 121.374995,80.7777695 C121.374995,80.7777695 121.374995,80.7777695 121.374995,80.7777695 L121.374995,96.3333451 L121.374995,96.3333463 C121.374995,100.628892 124.844787,104.111116 129.124995,104.111116 L133,104.111116 L133,111.888885 L129.124995,111.888885 L129.124995,111.888885 C124.844786,111.888886 121.374995,115.37111 121.374995,119.666655 C121.374995,119.666655 121.374995,119.666655 121.374995,119.666655 L121.374995,135.22223 L121.374995,135.22223 C121.374995,139.517776 117.905204,143 113.624995,143 C113.624995,143 113.624995,143 113.624995,143 L105.874995,143 L105.874995,135.22223 L113.624995,135.22223 L113.624995,115.777829 L113.624995,115.777831 C113.624994,111.482285 117.094786,108.000061 121.374995,108.000061 L121.374995,108.000061 C117.094786,108.000061 113.624995,104.517837 113.624995,100.222291 C113.624995,100.222291 113.624995,100.222291 113.624995,100.222291 L113.624995,80.7778904 L105.874995,80.7778904 L105.874995,73 L113.624995,73 L113.624996,73 Z M86.4999536,119.666756 L86.4999534,119.666756 C88.6400532,119.666756 90.374958,121.407868 90.374958,123.555646 L90.374958,123.555646 C90.374958,125.703414 88.6400623,127.444535 86.4999534,127.444535 L86.4999532,127.444535 C84.3598535,127.444535 82.6249487,125.703423 82.6249487,123.555646 L82.6249487,123.555645 C82.6249487,121.407877 84.3598444,119.666756 86.4999532,119.666756 L86.4999536,119.666756 Z M70.9999168,119.666755 L70.9999166,119.666755 C73.1400164,119.666755 74.8749212,121.407868 74.8749212,123.555645 L74.8749212,123.555645 C74.8749212,125.703413 73.1400255,127.444534 70.9999166,127.444534 L70.9999165,127.444534 C68.8598168,127.444534 67.124912,125.703422 67.124912,123.555645 L67.124912,123.555644 C67.124912,121.407876 68.8598077,119.666755 70.9999165,119.666755 L70.9999168,119.666755 Z M101.999899,119.666754 L101.999899,119.666754 C104.139999,119.666754 105.874903,121.407867 105.874903,123.555644 L105.874903,123.555644 C105.874903,125.703412 104.140008,127.444534 101.999899,127.444534 L101.999899,127.444534 C99.8597989,127.444534 98.1248941,125.703421 98.1248941,123.555644 L98.1248941,123.555644 C98.1248941,121.407876 99.8597898,119.666754 101.999899,119.666754 L101.999899,119.666754 Z" id="形状" fill="#FFFFFF"></path>
        </g>
    </g>
</svg>