<?xml version="1.0" encoding="UTF-8"?>
<svg width="200px" height="200px" viewBox="0 0 200 200" version="1.1" xmlns="http://www.w3.org/2000/svg" xmlns:xlink="http://www.w3.org/1999/xlink">
    <!-- Generator: Sketch 57.1 (83088) - https://sketch.com -->
    <title>keynote</title>
    <desc>Created with Sketch.</desc>
    <g id="keynote" stroke="none" stroke-width="1" fill="none" fill-rule="evenodd">
        <g id="ppt" transform="translate(14.000000, 0.000000)" fill-rule="nonzero">
            <path d="M0,7.5757632 L0,192.424237 C0,196.363632 3.93870618,200 7.57443797,200 L165.425562,200 C169.364268,200 173,196.060605 173,192.424237 L173,43.9394422 L129.068225,0.303105528 L7.57422316,0 C3.63573179,0 0,3.9393953 0,7.5757632 Z" id="路径" fill="#008AFC"></path>
            <path d="M129,34.5 C129,38.3999945 132.964553,42 136.624125,42 L172,42 L129,0 L129,34.5 Z" id="路径" fill="#96CFFF"></path>
            <path d="M98.0783261,144.444444 L73.0327851,144.444444 C72.1220395,144.444444 71.6666667,144.949495 71.6666667,145.959596 L71.6666667,148.484848 C71.6666667,149.494949 72.1220395,150 73.0327851,150 L98.0783261,150 C98.9890716,150 99.4444444,149.494949 99.4444444,148.484848 L99.4444444,145.959596 C99.4444444,145.454545 98.5336989,144.444444 98.0783261,144.444444 Z M116.048671,71.8495479 C115.588094,70.462387 114.66694,70 113.285202,70 L57.5553835,70 C56.1736527,70 55.2524988,70.924774 55.2524988,72.3119349 L45.1198097,103.75431 C44.6592327,105.141471 45.5803866,106.52864 46.9621175,106.991016 L82.8870668,106.991016 L82.8870668,144.444444 L89.3351554,144.444444 L89.3351554,106.991016 L125.260105,106.991016 C126.641836,106.528629 127.562989,105.141468 127.102413,103.75431 L116.048554,71.8496914 L116.048671,71.8495479 Z" id="形状" fill="#FFFFFF"></path>
        </g>
    </g>
</svg>