<?xml version="1.0" encoding="UTF-8"?>
<svg width="200px" height="200px" viewBox="0 0 200 200" version="1.1" xmlns="http://www.w3.org/2000/svg" xmlns:xlink="http://www.w3.org/1999/xlink">
    <!-- Generator: Sketch 63.1 (92452) - https://sketch.com -->
    <title>md</title>
    <desc>Created with Sketch.</desc>
    <g id="md" stroke="none" stroke-width="1" fill="none" fill-rule="evenodd">
        <g id="icon" transform="translate(14.000000, 0.000000)" fill-rule="nonzero">
            <path d="M0,7.5757632 L0,192.424237 C0,196.363632 3.93870618,200 7.57443797,200 L165.425562,200 C169.364268,200 173,196.060605 173,192.424237 L173,43.9394422 L129.068225,0.303105528 L7.57422316,0 C3.63573179,0 0,3.9393953 0,7.5757632 Z" id="路径" fill="#009688"></path>
            <path d="M129,0 L129,34.5 C129,38.3999945 132.964553,42 136.624125,42 L172,42 L129,0 L129,0 Z" id="路径" fill="#97E6FF"></path>
        </g>
        <path d="M53.9423631,134 L53.9423631,89.9423631 L54.426513,89.9423631 L65.0778098,123.429395 L77.3429395,123.429395 L88.1556196,89.9423631 L88.6397695,89.9423631 L88.6397695,134 L100.743516,134 L100.743516,78 L81.3775216,78 L71.6945245,109.550432 L71.2103746,109.550432 L61.9308357,78 L42,78 L42,134 L53.9423631,134 Z M132.37464,134 C148.835735,134 159.648415,127.62536 159.648415,106 C159.648415,82.6801153 148.835735,78 132.37464,78 L113.170029,78 L113.170029,134 L132.37464,134 Z M131.729107,123.510086 L125.435159,123.510086 L125.435159,88.3285303 L131.729107,88.3285303 C141.815562,88.3285303 146.979827,91.556196 146.979827,106 C146.979827,119.636888 142.057637,123.510086 131.729107,123.510086 Z" id=".MD" fill="#FFFFFF" fill-rule="nonzero"></path>
    </g>
</svg>