<?xml version="1.0" encoding="UTF-8"?>
<svg width="200px" height="200px" viewBox="0 0 200 200" version="1.1" xmlns="http://www.w3.org/2000/svg" xmlns:xlink="http://www.w3.org/1999/xlink">
    <!-- Generator: Sketch 57.1 (83088) - https://sketch.com -->
    <title>pages</title>
    <desc>Created with Sketch.</desc>
    <g id="pages" stroke="none" stroke-width="1" fill="none" fill-rule="evenodd">
        <g id="ppt" transform="translate(14.000000, 0.000000)" fill-rule="nonzero">
            <path d="M0,7.5757632 L0,192.424237 C0,196.363632 3.93870618,200 7.57443797,200 L165.425562,200 C169.364268,200 173,196.060605 173,192.424237 L173,43.9394422 L129.068225,0.303105528 L7.57422316,0 C3.63573179,0 0,3.9393953 0,7.5757632 Z" id="路径" fill="#FFBD39"></path>
            <path d="M129,34.5 C129,38.3999945 132.964553,42 136.624125,42 L172,42 L129,0 L129,34.5 Z" id="路径" fill="#FFD58A"></path>
            <path d="M53.3553204,131.334118 L61.6924889,139.730515 L52.823,144.444 L130.888889,144.444444 L130.888889,150 L42,150 L42,144.444444 L48.148,144.444 L53.3553204,131.334118 Z M80.5416688,101.399085 L88.1538648,110.890666 L63.50492,137.905148 L54.8051612,128.413567 L80.5416688,101.399085 Z M116.427821,71.0989296 C118.917349,73.6061436 116.521765,79.2760823 116.430479,79.4891497 L116.427821,79.4953265 L112.05,84.595 L112.986147,85.5569311 C117.593468,85.9210182 116.285377,90.9321653 116.236287,91.1142685 L116.234901,91.119357 L98.186266,111.144084 C98.9082129,114.481535 97.1033494,115.594022 97.1033494,115.594022 C95.7443933,117.339098 93.7459286,116.456294 93.5155173,116.346397 L93.4936224,116.335679 C90.9668179,113.739888 92.4107058,110.031594 92.4107058,110.031594 L92.4107058,110.031594 L109.015361,91.490124 C110.279567,89.9749518 109.698972,88.8388112 108.996481,88.1554515 L91.0537844,109.065284 L82.3541297,99.5736399 L107.003193,72.1941107 C108.090652,71.0989296 113.890417,68.5434998 116.427821,71.0989296 Z" id="形状结合" fill="#FFFFFF"></path>
        </g>
    </g>
</svg>