<?xml version="1.0" encoding="UTF-8"?>
<svg width="200px" height="200px" viewBox="0 0 200 200" version="1.1" xmlns="http://www.w3.org/2000/svg" xmlns:xlink="http://www.w3.org/1999/xlink">
    <!-- Generator: Sketch 57.1 (83088) - https://sketch.com -->
    <title>pdf</title>
    <desc>Created with Sketch.</desc>
    <g id="pdf" stroke="none" stroke-width="1" fill="none" fill-rule="evenodd">
        <g id="icon" transform="translate(14.000000, 0.000000)" fill-rule="nonzero">
            <path d="M0,7.5757632 L0,192.424237 C0,196.363632 3.93870618,200 7.57443797,200 L165.425562,200 C169.364268,200 173,196.060605 173,192.424237 L173,43.9394422 L129.068225,0.303105528 L7.57422316,0 C3.63573179,0 0,3.9393953 0,7.5757632 Z" id="路径" fill="#F95E5D"></path>
            <path d="M129,34.5 C129,38.3999945 132.964553,42 136.624125,42 L172,42 L129,0 L129,34.5 Z" id="路径" fill="#FFA5A6"></path>
            <path d="M125.603809,124.34613 C125.603809,131.935965 118.431598,131.935965 114.70931,131.935965 C108.862596,131.663602 103.034039,129.230497 98.5128222,125.163218 C89.4885456,127.069755 80.9908365,130.047585 72.4931274,133.570139 C65.8474831,145.771978 59.4742012,152 53.8998493,152 C52.8285569,152 51.5030595,151.727638 50.7222871,151.182913 C48.3254974,150.093463 47,147.660358 47,145.227253 C47,143.320716 47.5265674,137.637419 68.2442728,128.41341 C73.0196948,119.734126 76.7419819,110.255912 79.6653391,100.75954 C77.0143444,95.3304484 71.4399925,82.3296797 75.4164846,75.5569329 C76.7419819,73.1238282 79.3929766,71.7620158 82.0621289,72.0343783 C84.1865562,72.0343783 86.3109834,73.1238282 87.6364808,75.012208 C90.559838,79.0794875 90.2874755,87.4864092 86.5833459,99.9424529 C90.0332705,106.7152 94.5544876,112.689017 100.12884,117.827589 C104.650057,117.010501 109.153116,116.193414 113.928538,116.193414 C124.278312,116.756296 125.876172,121.640663 125.603809,124.34613 L125.603809,124.34613 Z M113.928538,122.984318 C112.076473,122.984318 110.206251,122.984318 108.354186,123.529043 C110.478613,124.618493 112.603041,125.163218 114.99983,125.417423 C116.59769,125.689785 118.177393,125.417423 119.248685,124.872698 C118.958165,124.073768 118.177393,122.984318 113.928538,122.984318 Z M53.6456443,145.753821 L54.1722118,145.481458 C57.095569,144.392008 59.7465637,142.231266 61.3444235,139.253436 C58.1668613,140.615249 55.7700716,142.775991 53.6456443,145.753821 Z M84.1865562,111.327204 L83.9141937,111.871929 L83.6418312,111.599567 C81.7897664,116.756296 79.3929766,121.894868 76.9961869,126.779235 L77.5227543,126.506873 L77.5227543,127.051598 C82.2981763,125.14506 87.3459608,123.801405 92.3937453,122.711956 L92.1213828,122.439593 L92.6479503,122.439593 C89.7609081,118.917038 86.8375509,115.140279 84.1865562,111.327204 Z M82.5886963,79.0794875 L82.0621289,79.0794875 C81.7897664,79.0794875 81.5355614,79.0794875 81.263199,79.35185 C80.464269,83.1467671 80.9908365,87.2140467 82.5886963,90.7366013 C83.6599887,86.9416842 83.9141937,82.8744047 82.5886963,79.0794875 Z" id="形状" fill="#FFFFFF"></path>
        </g>
    </g>
</svg>