<?xml version="1.0" encoding="UTF-8"?>
<svg width="200px" height="200px" viewBox="0 0 200 200" version="1.1" xmlns="http://www.w3.org/2000/svg" xmlns:xlink="http://www.w3.org/1999/xlink">
    <!-- Generator: Sketch 57.1 (83088) - https://sketch.com -->
    <title>PSD</title>
    <desc>Created with Sketch.</desc>
    <g id="PSD" stroke="none" stroke-width="1" fill="none" fill-rule="evenodd">
        <g id="icon" transform="translate(14.000000, 0.000000)" fill-rule="nonzero">
            <path d="M0,7.5757632 L0,192.424237 C0,196.363632 3.93870618,200 7.57443797,200 L165.425562,200 C169.364268,200 173,196.060605 173,192.424237 L173,43.9394422 L129.068225,0.303105528 L7.57422316,0 C3.63573179,0 0,3.9393953 0,7.5757632 Z" id="路径" fill="#1E9CEF"></path>
            <path d="M129,0 L129,34.5 C129,38.3999945 132.964553,42 136.624125,42 L172,42 L129,0 L129,0 Z" id="路径" fill="#95D5FF"></path>
            <path d="M64.604076,74.1002712 C55.2032103,73.7753925 44,74.3439303 44,74.3439303 L44,146 L55.4899469,146 L55.4899469,120.060462 C70.9225227,121.37013 87.8297441,115.359873 87.8297441,97.0346806 L87.8297442,97.034679 C88.5983633,85.1272382 79.4847639,74.856628 67.4740027,74.0945589 C66.5182912,74.0339255 65.5595876,74.0358151 64.6041241,74.1002155 L64.604076,74.1002712 Z M105.868002,104.859277 C105.969904,101.12636 113.795957,98.831534 125.045908,103.941346 L125.045908,92.8649866 L125.045906,92.864986 C118.454074,90.4569646 111.264446,90.2281832 104.533088,92.2122355 L104.533089,92.2122351 C96.5619218,95.2883058 92.5914482,104.249585 95.6647726,112.227898 C96.1504171,113.488613 96.7988608,114.68027 97.5935812,115.772512 C103.43255,122.718185 117.973927,125.308789 115.579237,132.091274 L115.579237,132.091274 C112.702965,135.714741 107.749729,136.945771 103.514072,135.089847 L103.514071,135.089846 C100.385353,134.274994 97.4088036,132.959324 94.6995869,131.193742 L94.6995869,142.922852 L94.6995871,142.922852 C97.5174247,144.390306 100.575289,145.34026 103.72808,145.72764 L103.72808,145.72764 C110.147459,146.661578 116.684567,145.174883 122.070391,141.556156 L122.070392,141.556156 C128.601672,135.524955 129.011412,125.336358 122.98556,118.799291 C121.273133,116.941582 119.147861,115.513371 116.781687,114.630214 C105.603067,109.194026 105.78649,107.674342 105.868012,104.859355 L105.868002,104.859277 Z M67.2972387,108.944682 L67.2972422,108.944682 C63.3310923,109.738759 59.2910178,110.086561 55.25,109.981803 L55.25,84.3545205 L55.25,84.3545208 C59.2326626,83.9188242 63.2574199,84.1041871 67.1850296,84.9041938 L67.1850303,84.904194 C72.4799246,86.3478677 75.973726,91.4699537 75.4477432,97.0177782 L75.4477432,97.0177786 C75.7209897,102.417068 72.3695161,107.321391 67.29724,108.944681 L67.2972387,108.944682 Z" id="形状" fill="#FFFFFF"></path>
        </g>
    </g>
</svg>