<?xml version="1.0" encoding="UTF-8"?>
<svg width="200px" height="200px" viewBox="0 0 200 200" version="1.1" xmlns="http://www.w3.org/2000/svg" xmlns:xlink="http://www.w3.org/1999/xlink">
    <!-- Generator: Sketch 63.1 (92452) - https://sketch.com -->
    <title>python</title>
    <desc>Created with Sketch.</desc>
    <g id="python" stroke="none" stroke-width="1" fill="none" fill-rule="evenodd">
        <g id="icon" transform="translate(14.000000, 0.000000)" fill-rule="nonzero">
            <path d="M0,7.5757632 L0,192.424237 C0,196.363632 3.93870618,200 7.57443797,200 L165.425562,200 C169.364268,200 173,196.060605 173,192.424237 L173,43.9394422 L129.068225,0.303105528 L7.57422316,0 C3.63573179,0 0,3.9393953 0,7.5757632 Z" id="路径" fill="#3572A7"></path>
            <path d="M129,0 L129,34.5 C129,38.3999945 132.964553,42 136.624125,42 L172,42 L129,0 L129,0 Z" id="路径" fill="#97BAFF"></path>
        </g>
        <path d="M129.822307,88.1453569 C135.509926,89.567259 137.879776,94.7809134 137.879776,99.0466806 L137.879776,118.479355 C137.879776,123.219046 134.561998,128.4327 128.874369,128.4327 L99.4882988,128.4327 L99.4882672,133.646329 L119.394957,133.646329 L119.394525,134.216731 C119.389348,136.585493 119.322039,139.917299 118.44702,141.229824 C116.551144,144.547602 114.655267,146.443478 110.389551,147.86538 C102.332082,149.287282 98.5402996,149.287282 91.9048042,148.339349 C87.1651138,147.865381 82.8993975,144.073633 82.8993975,139.333943 L82.8993975,119.427253 C82.8993975,117.057413 87.1651138,111.843758 92.3787682,111.843758 L110.389602,111.843758 C117.499133,111.843758 121.764839,105.208202 121.764839,98.5726657 L121.764839,88.1453569 L129.822307,88.1453569 Z M108.01976,69.6606507 C112.75945,70.1346188 117.025167,73.926367 117.025167,78.6660575 L117.025167,98.5727472 C117.025167,100.942587 112.75945,106.156242 107.545796,106.156242 L89.5349621,106.156242 C82.4254315,106.156242 78.1597253,112.791798 78.1597253,119.427334 L78.1597253,129.854643 L70.1022567,129.854643 C64.4146383,128.432741 62.044788,123.219087 62.044788,118.953319 L62.044788,99.5206446 C61.570819,94.7809541 64.8886023,90.0412738 70.5762206,90.0412738 C77.6857512,89.5673058 100.436204,89.5673058 100.436204,89.5673048 L100.436297,84.3536708 L80.5296072,84.3536708 C80.5296072,81.9838306 80.5296072,78.1920783 81.4775443,76.7701762 C83.3734205,73.452398 85.2692967,71.5565218 89.535013,70.1346198 C97.5924816,68.7127177 101.384265,68.7127177 108.01976,69.6606507 Z" id="形状结合" fill="#FFFFFF" fill-rule="nonzero"></path>
    </g>
</svg>