<?xml version="1.0" encoding="UTF-8"?>
<svg width="200px" height="200px" viewBox="0 0 200 200" version="1.1" xmlns="http://www.w3.org/2000/svg" xmlns:xlink="http://www.w3.org/1999/xlink">
    <!-- Generator: Sketch 63.1 (92452) - https://sketch.com -->
    <title>sh</title>
    <desc>Created with Sketch.</desc>
    <g id="sh" stroke="none" stroke-width="1" fill="none" fill-rule="evenodd">
        <g id="icon" transform="translate(14.000000, 0.000000)" fill-rule="nonzero">
            <path d="M0,7.5757632 L0,192.424237 C0,196.363632 3.93870618,200 7.57443797,200 L165.425562,200 C169.364268,200 173,196.060605 173,192.424237 L173,43.9394422 L129.068225,0.303105528 L7.57422316,0 C3.63573179,0 0,3.9393953 0,7.5757632 Z" id="路径" fill="#7293DF"></path>
            <path d="M129,0 L129,34.5 C129,38.3999945 132.964553,42 136.624125,42 L172,42 L129,0 L129,0 Z" id="路径" fill="#AED1FF"></path>
        </g>
        <path d="M68.073107,143 C81.1383812,143 88.7519582,138.86423 88.7519582,126.926893 C88.7519582,117.62141 85.8381201,114.237598 74.7467363,111.417755 C66.7571802,109.443864 65.3472585,108.879896 65.3472585,105.684073 C65.3472585,102.206266 67.0391645,100.984334 73.3368146,100.984334 C77.848564,100.984334 83.4882507,102.112272 86.2140992,102.86423 L86.7780679,92.4308094 C84.0522193,91.3968668 78.5065274,90.7389034 72.8668407,90.7389034 C58.1096606,90.7389034 52.5639687,96.3785901 52.5639687,105.872063 C52.5639687,114.425587 55.1018277,117.715405 66.0052219,120.253264 C74.1827676,122.227154 75.7806789,123.261097 75.7806789,127.302872 C75.7806789,131.344648 73.2428198,132.37859 67.3211488,132.37859 C62.7154047,132.37859 56.8877285,131.532637 52,130.028721 L52,141.402089 C56.5117493,142.436031 62.151436,143 68.073107,143 Z M113.848564,142.436031 L113.848564,109.16188 C115.35248,103.616188 119.018277,101.830287 124.657963,101.830287 C131.143603,101.830287 132.929504,104.462141 132.929504,111.32376 L132.929504,142.436031 L146.558747,142.436031 L146.558747,107.751958 C146.558747,96.5665796 142.328982,90.7389034 129.733681,90.7389034 C122.214099,90.7389034 116.574413,93.0887728 113.848564,97.8825065 L113.848564,71 L100.219321,71 L100.219321,142.436031 L113.848564,142.436031 Z" fill="#FFFFFF" fill-rule="nonzero"></path>
    </g>
</svg>