<?xml version="1.0" encoding="UTF-8"?>
<svg width="200px" height="200px" viewBox="0 0 200 200" version="1.1" xmlns="http://www.w3.org/2000/svg" xmlns:xlink="http://www.w3.org/1999/xlink">
    <!-- Generator: Sketch 57.1 (83088) - https://sketch.com -->
    <title>text</title>
    <desc>Created with Sketch.</desc>
    <g id="text" stroke="none" stroke-width="1" fill="none" fill-rule="evenodd">
        <g id="icon" transform="translate(14.000000, 0.000000)" fill-rule="nonzero">
            <path d="M0,7.5757632 L0,192.424237 C0,196.363632 3.93870618,200 7.57443797,200 L165.425562,200 C169.364268,200 173,196.060605 173,192.424237 L173,43.9394422 L129.068225,0.303105528 L7.57422316,0 C3.63573179,0 0,3.9393953 0,7.5757632 Z" id="路径" fill="#4D98FE"></path>
            <path d="M129,34.5 C129,38.3999945 132.964553,42 136.624125,42 L172,42 L129,0 L129,34.5 Z" id="路径" fill="#AFD1FF"></path>
        </g>
        <path d="M106.493151,82.3872976 L106.493151,131.343711 C106.493151,136.185554 106.672478,139.323786 107.210461,143 L93.6712329,143 C94.2092154,139.234122 94.388543,136.185554 94.388543,131.343711 L94.388543,82.3872976 L82.2839352,82.3872976 C76.9937733,82.3872976 73.1382316,82.5666252 70,83.014944 L70,71 C73.2278954,71.4483188 77.0834371,71.6276463 82.1942715,71.6276463 L117.701121,71.6276463 C124.156912,71.6276463 127.474471,71.4483188 130.881694,71 L130.881694,83.014944 C127.564134,82.5666252 124.156912,82.3872976 117.701121,82.3872976 L106.493151,82.3872976 Z" id="T" fill="#FFFFFF" fill-rule="nonzero"></path>
    </g>
</svg>