<?xml version="1.0" encoding="UTF-8"?>
<svg width="200px" height="200px" viewBox="0 0 200 200" version="1.1" xmlns="http://www.w3.org/2000/svg" xmlns:xlink="http://www.w3.org/1999/xlink">
    <!-- Generator: Sketch 57.1 (83088) - https://sketch.com -->
    <title>视频</title>
    <desc>Created with Sketch.</desc>
    <g id="视频" stroke="none" stroke-width="1" fill="none" fill-rule="evenodd">
        <g id="icon" transform="translate(14.000000, 0.000000)" fill-rule="nonzero">
            <path d="M0,7.5757632 L0,192.424237 C0,196.363632 3.93870618,200 7.57443797,200 L165.425562,200 C169.364268,200 173,196.060605 173,192.424237 L173,43.9394422 L129.068225,0.303105528 L7.57422316,0 C3.63573179,0 0,3.9393953 0,7.5757632 Z" id="路径" fill="#8283F1"></path>
            <path d="M129,0 L129,34.5 C129,38.3999945 132.964553,42 136.624125,42 L172,42 L129,0 L129,0 Z" id="路径" fill="#AAABFE"></path>
            <path d="M111.402426,117.249993 L111.402426,104.65102 C111.402426,103.391038 111.824093,101.940473 112.406889,101.337022 L126.254696,87.1424522 C130.786062,82.500086 136,81.1945533 136,86.1725343 L136,135.735646 C136,140.706582 130.786062,139.408701 126.254696,134.766214 L112.406889,120.571036 C111.824093,119.975724 111.402426,118.517628 111.402426,117.249993 L111.402426,117.249993 Z M104.854571,131.230659 C104.854571,135.447768 101.421344,138.866106 97.1866203,138.866106 L43.6673404,138.866106 C39.4326168,138.866106 36,135.447646 36,131.230659 L36,90.6622159 C36,86.4455932 39.4327388,83.0265261 43.6673404,83.0265261 L97.1866203,83.0265261 C101.421466,83.0265261 104.854571,86.4455932 104.854571,90.6622159 L104.854571,131.230659 Z" id="形状" fill="#FFFFFF"></path>
        </g>
    </g>
</svg>