<?xml version="1.0" encoding="UTF-8"?>
<svg width="200px" height="200px" viewBox="0 0 200 200" version="1.1" xmlns="http://www.w3.org/2000/svg" xmlns:xlink="http://www.w3.org/1999/xlink">
    <!-- Generator: Sketch 57.1 (83088) - https://sketch.com -->
    <title>word</title>
    <desc>Created with Sketch.</desc>
    <g id="word" stroke="none" stroke-width="1" fill="none" fill-rule="evenodd">
        <g id="word-" transform="translate(14.000000, 0.000000)" fill-rule="nonzero">
            <path d="M7.57443797,0 C3.63573179,0 0,3.9393953 0,7.5757632 L0,192.424237 C0,196.363632 3.93870618,200 7.57443797,200 L165.425562,200 C169.364268,200 173,196.060605 173,192.424237 L173,43.9394422 L129.068225,0.303105528 L7.57422316,0 L7.57443797,0 Z" id="路径" fill="#2C97FF"></path>
            <path d="M129,0 L129,34.5 C129,38.3999945 132.964553,42 136.624125,42 L172,42 L129,0 L129,0 Z" id="路径" fill="#99D3FF"></path>
            <polygon id="路径" fill="#FFFFFF" points="34 75 57.7692096 146 69.0443722 146 85.5 88.8979337 101.955628 146 113.23079 146 137 75 124.505914 75 106.831342 132.404288 90.6804456 75 80.6242264 75 64.1685986 132.404288 46.4940274 75"></polygon>
        </g>
    </g>
</svg>