<?xml version="1.0" encoding="UTF-8"?>
<svg width="200px" height="200px" viewBox="0 0 200 200" version="1.1" xmlns="http://www.w3.org/2000/svg" xmlns:xlink="http://www.w3.org/1999/xlink">
    <!-- Generator: Sketch 63.1 (92452) - https://sketch.com -->
    <title>xmind</title>
    <desc>Created with Sketch.</desc>
    <g id="xmind" stroke="none" stroke-width="1" fill="none" fill-rule="evenodd">
        <g id="icon" transform="translate(14.000000, 0.000000)" fill-rule="nonzero">
            <path d="M0,7.5757632 L0,192.424237 C0,196.363632 3.93870618,200 7.57443797,200 L165.425562,200 C169.364268,200 173,196.060605 173,192.424237 L173,43.9394422 L129.068225,0.303105528 L7.57422316,0 C3.63573179,0 0,3.9393953 0,7.5757632 Z" id="路径" fill="#DF4253"></path>
            <path d="M129,0 L129,34.5 C129,38.3999945 132.964553,42 136.624125,42 L172,42 L129,0 L129,0 Z" id="路径" fill="#FF9BA6"></path>
        </g>
        <path d="M138.862919,86.5343744 C138.775884,80.4825421 137.59801,79.3336795 131.691231,80.0299598 C128.116987,80.4477281 124.565957,81.1498112 121.014927,81.7880678 C118.635974,82.223243 116.286028,82.7802673 113.918675,83.2560634 C110.901455,83.8595059 110.228389,84.8923222 110.98849,87.7818858 C111.272805,88.8611203 111.603538,89.934548 111.78341,91.0311896 C112.276609,94.0019813 111.504898,95.5802258 108.922854,97.1352429 C103.532488,100.384547 96.459435,99.8333293 91.347622,95.8819382 C87.1931537,92.6674484 84.6749307,88.3795173 82.6731246,83.6448109 C80.6365046,78.8172625 79.7835611,78.4923362 74.5730585,79.4033075 C68.2485074,80.5057519 61.9065628,81.5501765 55.5646046,82.5365692 C51.6074067,83.1516173 50.1684318,85.7278587 51.4623574,89.4993728 C53.2552793,94.7330756 56.8179093,98.4813895 61.4307667,101.022813 C66.2989224,103.691892 71.5674528,105.629863 76.6038309,108.014624 C78.0021985,108.67609 79.1858752,109.790138 80.4623801,110.70111 C79.2496922,111.57146 78.158848,112.818958 76.8069082,113.24834 C71.1148162,115.047069 65.7128365,117.408615 60.9258682,120.994459 C56.1331339,124.580303 52.9128372,129.123532 52.9128372,135.407463 C52.9128372,138.755415 53.6323274,139.376261 56.9512633,138.819236 C63.0437165,137.798026 69.1129558,136.730395 75.1938088,135.691782 C78.4315125,135.14056 79.4353122,134.078737 79.7660453,130.829419 C79.8356734,130.109929 79.7718477,129.373037 79.899499,128.665143 C80.9729308,122.503062 84.2744652,117.954026 90.7614727,117.118489 C103.625252,115.464823 114.701958,122.102701 118.688163,134.246986 C119.84863,137.780609 121.879452,138.807623 125.569738,138.0069 C133.072159,136.382241 140.568733,134.734383 148.094408,133.208373 C149.544997,132.918256 149.893137,132.245184 149.939551,130.951268 C150.08461,126.872221 148.216257,123.570696 145.831497,120.53607 C141.050376,114.461024 134.505341,110.869373 127.571544,107.85796 C125.349254,106.894772 123.10375,105.989604 120.997502,104.811734 C119.720987,104.092244 119.918267,103.059433 121.328235,102.624258 C123.202385,102.038222 125.157777,101.719093 127.043541,101.167876 C133.484134,99.2879188 139.170419,94.0368089 138.857093,86.5344288 L138.862919,86.5343744 Z" id="路径" fill="#FFFFFF" fill-rule="nonzero"></path>
    </g>
</svg>