<?xml version="1.0" encoding="UTF-8"?>
<svg width="200px" height="200px" viewBox="0 0 200 200" version="1.1" xmlns="http://www.w3.org/2000/svg" xmlns:xlink="http://www.w3.org/1999/xlink">
    <!-- Generator: Sketch 57.1 (83088) - https://sketch.com -->
    <title>zip</title>
    <desc>Created with Sketch.</desc>
    <g id="zip" stroke="none" stroke-width="1" fill="none" fill-rule="evenodd">
        <g id="编组" transform="translate(14.000000, 14.000000)" fill-rule="nonzero">
            <polygon id="路径" fill="#F95F5D" points="0 57.955 173 57.955 173 115.91 0 115.91"></polygon>
            <path d="M173,57.955 L173,10.9987591 C173,5.2173601 168.081235,0 162.178716,0 L10.8212835,0 C4.91876523,0 0,5.2173601 0,10.9987591 L0,57.955 L173,57.955 Z" id="路径" fill="#55C7F7"></path>
            <path d="M0,115.045 L0,162.001241 C0,167.78264 4.88700565,173 10.7514124,173 L162.248588,173 C168.112994,173 173,167.78264 173,162.001241 L173,115.045 L0,115.045 Z" id="路径" fill="#7ECF3B"></path>
            <polygon id="路径" fill="#FDAF42" points="65.74 0 105.53 0 105.53 173 65.74 173"></polygon>
            <path d="M105.306507,73.7894586 L105.306507,97.893758 L65.0984928,97.893758 L65.0984928,73.7894586 L105.306507,73.7894586 L105.306507,73.7894586 Z M111.822978,64.01 L58.7206699,64.01 C57.7501316,64.01 56.225,64.974172 56.225,66.4892994 L56.225,104.780701 C56.225,105.744873 57.1955383,107.26 58.7206699,107.26 L111.68433,107.26 C112.654868,107.26 114.18,106.295828 114.18,104.780701 L114.18,66.6270382 C113.625407,64.6986943 112.654868,64.01 111.822978,64.01 Z" id="形状" fill="#FFFFFF"></path>
        </g>
    </g>
</svg>