<?xml version="1.0" standalone="no"?><!DOCTYPE svg PUBLIC "-//W3C//DTD SVG 1.1//EN" "http://www.w3.org/Graphics/SVG/1.1/DTD/svg11.dtd">
<svg xmlns="http://www.w3.org/2000/svg" class="icon" viewBox="0 0 1024 1024"><defs><style></style></defs><path d="M553.363 163.663l62.602 13.307q7.825 1.663 6.162 9.488L479.915 855.511q-1.663 7.825-9.488 6.162l-62.602-13.307q-7.825-1.663-6.162-9.488l142.212-669.053q1.663-7.825 9.488-6.162zM712 334.415v81.297a8 8 0 003.07 6.3L830.062 512 715.07 601.988a8 8 0 00-3.07 6.3v81.297a8 8 0 0012.93 6.301l218.96-171.284c6.96-5.444 8.189-15.5 2.744-22.46a16 16 0 00-2.744-2.744L724.93 328.114a8 8 0 00-12.93 6.301zm-400 0v81.297a8 8 0 01-3.07 6.3L193.938 512l114.992 89.988a8 8 0 013.07 6.3v81.297a8 8 0 01-12.93 6.301L80.11 524.602c-6.96-5.444-8.189-15.5-2.744-22.46a16 16 0 012.744-2.744l218.96-171.284a8 8 0 0112.93 6.301z"></path></svg>