<?xml version="1.0" standalone="no"?><!DOCTYPE svg PUBLIC "-//W3C//DTD SVG 1.1//EN" "http://www.w3.org/Graphics/SVG/1.1/DTD/svg11.dtd"><svg class="icon" width="200px" height="199.22px" viewBox="0 0 1028 1024" version="1.1" xmlns="http://www.w3.org/2000/svg"><path d="M901.43756354 316.61729246l-133.45153336-0.48802122 149.73368527-148.84637421C934.0905979 150.73455188 934.0905979 123.93776791 917.71971545 107.43378884 901.26010166 90.92980896 874.64077957 90.92980896 858.26989631 107.43378884l-151.19774809 150.39916837 1.02040769-136.11346572c0.39928986-17.08073163-13.08783308-31.94318601-30.07983335-31.54389615l-21.5172853 0c-16.99200027 0.44365512-31.05587576 10.60336341-31.41079954 27.68409502l-0.88731106 236.15775028c0 0.3105585 1.10913821 0.53238648 1.10913822 0.84294498l-1.6415247 15.48357221C623.53184357 378.86213977 625.52829284 386.53737756 631.02961948 391.99433892c5.41259528 5.5456919 13.0434678 8.87310736 21.51728531 8.6512794L667.89738037 400.33505982c0.35492459 0 0.57675173-0.13309662 0.88731107-0.17746189L905.25299939 401.48856329c16.99200027-0.39928986 31.01150967-14.50753061 31.45516562-31.6326275L936.70816501 348.1611886C934.13496399 328.01923557 918.38519855 316.21800259 901.43756354 316.61729246zM935.11100559 676.64362036l-0.04436528-21.69474719c-0.39928986-17.12509689-14.37443399-31.23333765-31.2777029-31.6326275l-235.22607395 1.28660092c-0.35492459 0-0.57675173-0.13309662-0.88731106-0.13309662l-15.30611032-0.35492458c-8.42945224-0.26619323-16.01595868 3.10558749-21.42855396 8.60691411-5.45696136 5.50132663-7.45340982 13.17656442-7.27594794 21.73911246l1.6415247 15.4835722c0 0.3105585-1.10913821 0.53238648-1.10913822 0.84294498l0.88731106 234.33876288c0.35492459 17.08073163 14.3300679 27.24043909 31.27770292 27.63972894l22.80388541 0.04436527c16.90326975 0.39928986 30.30166132-14.50753061 29.90237146-31.58826224l-0.9760416-133.36280201 150.57663024 149.46749204c16.28215193 16.50397988 42.81274265 16.50397988 59.13925983 0s16.32651718-43.30076385 0-59.84910819l-150.39916836-150.17734039 132.56422229-0.48802121C916.83240439 707.25584018 932.53780456 696.78557339 935.11100559 676.64362036zM394.20638611 632.76610477c-5.41259528-5.50132663-13.0434678-8.87310736-21.51728531-8.60691413l-15.39484085 0.35492459c-0.26619323 0-0.53238648 0.13309662-0.84294498 0.13309663L123.13295895 623.31624567c-16.94763501 0.39928986-31.01150967 14.50753061-31.41079952 31.6326275l-0.04436527 21.69474719c2.57320102 20.14195386 18.32296646 30.56785455 35.27060147 30.25729605l131.58818069 0.48802121L107.56065539 857.52191193C91.14540769 874.07025708 91.14540769 900.86704105 107.56065539 917.37102012s42.99020453 16.50397988 59.40545307 0l151.19774808-150.3548031-1.02040769 132.56422229c-0.39928986 17.08073163 13.08783308 31.94318601 30.03546807 31.54389614l21.56165058 0c16.99200027-0.44365512 31.05587576-10.55899732 31.41079954-27.68409503l0.88731106-232.65287292c0-0.3105585-1.10913821-0.53238648-1.10913821-0.84294499l1.68589078-15.4835722C401.70416202 645.94266919 399.70771274 638.2674314 394.20638611 632.76610477zM400.99431366 354.01743982l-0.88731107-236.15775027C399.79644409 100.77895792 385.77693469 90.57488437 368.87366495 90.13122925L346.06977954 90.13122925C329.1665098 89.77630548 315.76811822 104.63875986 316.16740808 121.6751254l1.02040769 135.18178939L166.65554996 107.43378884C150.28466751 90.92980896 123.79844204 90.92980896 107.47192487 107.43378884S91.14540769 150.73455188 107.47192487 167.28289703l149.06820218 148.84637421-131.32198746 0.48802122C108.35923511 316.21800259 92.69820103 328.01923557 90.125 348.1611886l0.04436527 21.69474719C90.56865512 386.98103351 104.54379925 401.08927344 121.447069 401.48856329l235.22607394-1.33096619c0.3105585 0.04436527 0.53238648 0.17746189 0.84294498 0.17746189l15.30611032 0.35492459c8.42945224 0.22182798 16.06032395-3.10558749 21.42855395-8.65127938C399.70771274 386.53737756 401.70416202 378.86213977 401.52670014 370.29959174L399.84080936 354.81601953C399.84080936 354.50546021 400.99431366 354.32799832 400.99431366 354.01743982z"  /></svg>
