<?xml version="1.0" standalone="no"?><!DOCTYPE svg PUBLIC "-//W3C//DTD SVG 1.1//EN" "http://www.w3.org/Graphics/SVG/1.1/DTD/svg11.dtd"><svg t="1590497302620" class="icon" viewBox="0 0 1098 1024" version="1.1" xmlns="http://www.w3.org/2000/svg" p-id="12385" xmlns:xlink="http://www.w3.org/1999/xlink" width="214.453125" height="200"><defs></defs><path d="M365.728 329.152q0 45.728-32 77.728t-77.728 32-77.728-32-32-77.728 32-77.728 77.728-32 77.728 32 32 77.728zM950.848 548.576l0 256-804.576 0 0-109.728 182.848-182.848 91.424 91.424 292.576-292.576zM1005.728 146.272l-914.272 0q-7.424 0-12.864 5.44t-5.44 12.864l0 694.848q0 7.424 5.44 12.864t12.864 5.44l914.272 0q7.424 0 12.864-5.44t5.44-12.864l0-694.848q0-7.424-5.44-12.864t-12.864-5.44zM1097.152 164.576l0 694.848q0 37.728-26.848 64.576t-64.576 26.848l-914.272 0q-37.728 0-64.576-26.848t-26.848-64.576l0-694.848q0-37.728 26.848-64.576t64.576-26.848l914.272 0q37.728 0 64.576 26.848t26.848 64.576z" p-id="12386"></path></svg>