<?xml version="1.0" standalone="no"?><!DOCTYPE svg PUBLIC "-//W3C//DTD SVG 1.1//EN" "http://www.w3.org/Graphics/SVG/1.1/DTD/svg11.dtd"><svg class="icon" width="200px" height="200.00px" viewBox="0 0 1024 1024" version="1.1" xmlns="http://www.w3.org/2000/svg"><path d="M0 512A512.605091 512.605091 0 0 1 512 0a512.605091 512.605091 0 0 1 512 512 512.558545 512.558545 0 0 1-512 512A512.605091 512.605091 0 0 1 0 512z m93.090909 0a419.421091 419.421091 0 0 0 418.909091 418.909091 419.421091 419.421091 0 0 0 418.909091-418.909091 419.467636 419.467636 0 0 0-418.909091-418.909091 419.467636 419.467636 0 0 0-418.909091 418.909091z m349.090909 231.377455a69.818182 69.818182 0 0 1 69.818182-69.818182 69.818182 69.818182 0 0 1 69.818182 69.818182 69.818182 69.818182 0 0 1-69.818182 69.818181 69.818182 69.818182 0 0 1-69.818182-69.771636z m23.272727-161.373091V222.626909h93.09091v359.377455z" /></svg>
