<?xml version="1.0" standalone="no"?><!DOCTYPE svg PUBLIC "-//W3C//DTD SVG 1.1//EN" "http://www.w3.org/Graphics/SVG/1.1/DTD/svg11.dtd"><svg class="icon" width="200px" height="200.00px" viewBox="0 0 1024 1024" version="1.1" xmlns="http://www.w3.org/2000/svg"><path d="M137.5 638h139V149.875c0-19.882 16.118-36 36-36s36 16.118 36 36V638h140V149.875c0-19.882 16.118-36 36-36s36 16.118 36 36V638H637c19.882 0 36 16.118 36 36s-16.118 36-36 36H101.5c-19.882 0-36-16.118-36-36 0-2.395 0.234-4.736 0.68-7a36.178 36.178 0 0 1-0.68-7V149c0-19.882 16.118-36 36-36s36 16.118 36 36v489zM742 532.5c0-17.673 14.327-32 32-32h128c17.673 0 32 14.327 32 32v349c0 17.673-14.327 32-32 32H774c-17.673 0-32-14.327-32-32v-349z m132.5-257.722V405c0 19.882-16.118 36-36 36s-36-16.118-36-36V274.778h-69.844a16 16 0 0 1-10.15-3.632c-6.83-5.605-7.824-15.687-2.219-22.518L825.96 119.851a16 16 0 0 1 2.219-2.22c6.831-5.605 16.913-4.611 22.518 2.22L956.37 248.628a16 16 0 0 1 3.631 10.15c0 8.836-7.163 16-16 16h-69.5z" /></svg>
