<?xml version="1.0" standalone="no"?><!DOCTYPE svg PUBLIC "-//W3C//DTD SVG 1.1//EN" "http://www.w3.org/Graphics/SVG/1.1/DTD/svg11.dtd"><svg class="icon" width="200px" height="200.00px" viewBox="0 0 1024 1024" version="1.1" xmlns="http://www.w3.org/2000/svg"><path d="M273.278 149.5H403.5c19.882 0 36 16.118 36 36s-16.118 36-36 36H273.278v69.844a16 16 0 0 1-3.632 10.15c-5.605 6.83-15.687 7.824-22.518 2.219L118.351 198.04a16 16 0 0 1-2.22-2.219c-5.605-6.831-4.611-16.913 2.22-22.518L247.128 67.63A16 16 0 0 1 257.278 64c8.836 0 16 7.163 16 16v69.5z m363.222 737v-139H148.375c-19.882 0-36-16.118-36-36s16.118-36 36-36H636.5v-140H148.375c-19.882 0-36-16.118-36-36s16.118-36 36-36H636.5V387c0-19.882 16.118-36 36-36s36 16.118 36 36v535.5c0 19.882-16.118 36-36 36-2.395 0-4.736-0.234-7-0.68-2.264 0.446-4.605 0.68-7 0.68h-511c-19.882 0-36-16.118-36-36s16.118-36 36-36h489zM531 282c-17.673 0-32-14.327-32-32V122c0-17.673 14.327-32 32-32h349c17.673 0 32 14.327 32 32v128c0 17.673-14.327 32-32 32H531z" /></svg>
