<?xml version="1.0" standalone="no"?><!DOCTYPE svg PUBLIC "-//W3C//DTD SVG 1.1//EN" "http://www.w3.org/Graphics/SVG/1.1/DTD/svg11.dtd"><svg class="icon" width="200px" height="200.00px" viewBox="0 0 1024 1024" version="1.1" xmlns="http://www.w3.org/2000/svg"><path d="M887 637H748V148.875c0-19.882-16.118-36-36-36s-36 16.118-36 36V637H536V148.875c0-19.882-16.118-36-36-36s-36 16.118-36 36V637h-76.5c-19.882 0-36 16.118-36 36s16.118 36 36 36H923c19.882 0 36-16.118 36-36 0-2.395-0.234-4.736-0.68-7 0.446-2.264 0.68-4.605 0.68-7V148c0-19.882-16.118-36-36-36s-36 16.118-36 36v489zM282.5 531.5c0-17.673-14.327-32-32-32h-128c-17.673 0-32 14.327-32 32v349c0 17.673 14.327 32 32 32h128c17.673 0 32-14.327 32-32v-349zM150 273.778V404c0 19.882 16.118 36 36 36s36-16.118 36-36V273.778h69.844a16 16 0 0 0 10.15-3.632c6.83-5.605 7.824-15.687 2.219-22.518L198.54 118.851a16 16 0 0 0-2.219-2.22c-6.831-5.605-16.913-4.611-22.518 2.22L68.13 247.628a16 16 0 0 0-3.631 10.15c0 8.836 7.163 16 16 16H150z" /></svg>
