<?xml version="1.0" standalone="no"?><!DOCTYPE svg PUBLIC "-//W3C//DTD SVG 1.1//EN" "http://www.w3.org/Graphics/SVG/1.1/DTD/svg11.dtd">
<svg xmlns="http://www.w3.org/2000/svg" class="icon" viewBox="0 0 1024 1024"><defs><style></style></defs><path d="M744 321v103.124c0 9.04 10.517 14.168 17.528 8.501l191.326-151.124c5.528-4.318 5.528-12.684 0-17.002L761.528 113.375c-7.146-5.667-17.528-.54-17.528 8.5V225H411C221.014 225 67 379.014 67 569s154.014 344 344 344h154.272a8 8 0 008-8v-80a8 8 0 00-8-8H411c-136.967 0-248-111.033-248-248 0-136.967 111.033-248 248-248h333z"></path></svg>