<?xml version="1.0" standalone="no"?><!DOCTYPE svg PUBLIC "-//W3C//DTD SVG 1.1//EN" "http://www.w3.org/Graphics/SVG/1.1/DTD/svg11.dtd"><svg class="icon" width="200px" height="200.00px" viewBox="0 0 1024 1024" version="1.1" xmlns="http://www.w3.org/2000/svg"><path d="M553.5 199.2c-10.3 0.1-20.2 4.4-27.4 11.8-7.2 7.4-11.2 17.4-11 27.7v24.5c-0.2 10.3 3.8 20.3 11 27.7 7.2 7.4 17 11.6 27.4 11.8 21.2 0 38.4-17.7 38.4-39.4v-24.5c0.2-10.3-3.8-20.3-11-27.7-7.2-7.6-17.1-11.8-27.4-11.9z m0 0"  /><path d="M895.7 322.9c0-1.6-0.7-3.1-0.9-4.7 1.7-12-2.4-24.1-10.9-32.8L711.3 112.9c-7.6-7.6-18.1-11.8-28.9-11.6-0.4 0-0.7-0.2-1.1-0.2h-30.6l-0.2-0.1-0.4 0.1H373.7l-0.2-0.1H167.6l-0.6 0.1-0.5-0.1c-9 0.1-17.7 3.6-24.4 9.6-0.8 0.7-1.8 1.1-2.6 1.8-0.9 0.8-1.3 2-2 2.9-6 6.6-9.3 15.1-9.5 24l0.1 0.5-0.1 0.6v739.8l0.1 0.7-0.1 0.5c0 9.6 3.9 18.1 9.9 24.8 0.6 0.7 0.9 1.5 1.5 2.1 1 1.1 2.4 1.6 3.5 2.5 6.6 5.6 14.9 8.8 23.5 9l0.5-0.1 0.5 0.1h688.9l0.5-0.1 0.4 0.1c8.6-0.2 16.9-3.4 23.5-9 1.1-0.9 2.5-1.4 3.5-2.5 0.6-0.6 1-1.4 1.5-2.1 6.2-6.8 9.7-15.6 9.8-24.8l-0.1-0.5 0.1-0.6 0.2-557.4zM411.8 177.8h200.4v154.6H411.8V177.8z m282 665.2H330.2V642.3l49.8-49.8h263.9l49.8 49.9V843z m125.2 0h-48.5V629.3c0-0.5-0.3-1-0.3-1.4 0.4-10.9-3.8-21.4-11.5-29.1l-71.3-71.1c-7.6-7.6-18-11.8-28.8-11.6-0.5 0-0.9-0.3-1.2-0.3H367.1c-0.5 0-1 0.3-1.5 0.3-10.9-0.4-21.4 3.8-29.2 11.5l-71.2 71.2c-7.7 7.8-11.8 18.4-11.5 29.3 0 0.4-0.3 0.8-0.3 1.3V843H205V177.8h130v191.9l0.1 0.6-0.1 0.5c0 9.3 3.8 17.6 9.6 24.2 0.7 0.9 1.1 1.9 1.9 2.7 0.8 0.8 1.8 1.2 2.7 1.9 6.7 6 15.3 9.4 24.3 9.6l0.6-0.1 0.5 0.1h274.9l0.6-0.1 0.6 0.1c9-0.1 17.6-3.5 24.3-9.6 0.9-0.7 1.9-1.1 2.7-1.9 0.9-0.8 1.2-1.9 1.9-2.7 6-6.7 9.4-15.2 9.6-24.2l-0.1-0.5 0.1-0.6V199L819 329v514z m0 0"  /></svg>
