<?xml version="1.0" standalone="no"?><!DOCTYPE svg PUBLIC "-//W3C//DTD SVG 1.1//EN" "http://www.w3.org/Graphics/SVG/1.1/DTD/svg11.dtd"><svg class="icon" width="200px" height="200.00px" viewBox="0 0 1024 1024" version="1.1" xmlns="http://www.w3.org/2000/svg"><path d="M572.183 676L572.183 548.5l-157.007 0L415.176 676 572.183 676z m0 72l-157.007 0 0 128L572.183 876 572.183 748z m0-405l-157.007 0 0 133.5L572.183 476.5 572.183 343z m0-72L572.183 148l-157.007 0 0 123L572.183 271zM148 548.5L148 876 343.176 876 343.176 548.5 148 548.5z m0-72L343.176 476.5 343.176 148 148 148l0 328.5z m728 72l-231.817 0L644.183 876 876 876 876 548.5z m0-72L876 148l-231.817 0 0 328.5L876 476.5zM948 144l0 736c0 37.555-30.445 68-68 68l-736 0c-37.555 0-68-30.445-68-68L76 144c0-37.555 30.445-68 68-68L880 76c37.555 0 68 30.445 68 68z" /></svg>
