<?xml version="1.0" standalone="no"?><!DOCTYPE svg PUBLIC "-//W3C//DTD SVG 1.1//EN" "http://www.w3.org/Graphics/SVG/1.1/DTD/svg11.dtd"><svg class="icon" width="200px" height="200.00px" viewBox="0 0 1024 1024" version="1.1" xmlns="http://www.w3.org/2000/svg"><path d="M676 451.817H548.5v157.007H676V451.817z m72 0v157.007h128V451.817H748z m-405 0v157.007h133.5V451.817H343z m-72 0H148v157.007h123V451.817zM548.5 876H876V680.824H548.5V876z m-72 0V680.824H148V876h328.5z m72-728v231.817H876V148H548.5z m-72 0H148v231.817h328.5V148zM144 76h736c37.555 0 68 30.445 68 68v736c0 37.555-30.445 68-68 68H144c-37.555 0-68-30.445-68-68V144c0-37.555 30.445-68 68-68z" /></svg>
