<?xml version="1.0" standalone="no"?><!DOCTYPE svg PUBLIC "-//W3C//DTD SVG 1.1//EN" "http://www.w3.org/Graphics/SVG/1.1/DTD/svg11.dtd"><svg class="icon" width="200px" height="200.00px" viewBox="0 0 1024 1024" version="1.1" xmlns="http://www.w3.org/2000/svg"><path d="M342.5 148H148v231.817h194.5V148z m72 0v231.817h195V148h-195z m267 0v231.817H876V148H681.5zM876 451.817H414.5v182.956a36.016 36.016 0 0 1 1.422 10.051c0 3.49-0.496 6.862-1.422 10.052V876H876V451.817zM342.5 876V680.824H148V876h194.5zM148 608.824h194.5V451.817H148v157.007zM144 76h736c37.555 0 68 30.445 68 68v736c0 37.555-30.445 68-68 68H144c-37.555 0-68-30.445-68-68V144c0-37.555 30.445-68 68-68z"  /></svg>
