<?xml version="1.0" standalone="no"?><!DOCTYPE svg PUBLIC "-//W3C//DTD SVG 1.1//EN" "http://www.w3.org/Graphics/SVG/1.1/DTD/svg11.dtd"><svg class="icon" width="200px" height="200.00px" viewBox="0 0 1024 1024" version="1.1" xmlns="http://www.w3.org/2000/svg"><path d="M928 64H96C42.98 64 0 106.98 0 160v704c0 53.02 42.98 96 96 96h832c53.02 0 96-42.98 96-96V160c0-53.02-42.98-96-96-96zM320 896H96c-17.674 0-32-14.326-32-32v-160h256v192z m0-256H64v-192h256v192z m0-256H64V192h256v192z m320 512H384v-192h256v192z m0-256H384v-192h256v192z m0-256H384V192h256v192z m320 320v160c0 17.674-14.326 32-32 32H704v-192h256z m0-64H704v-192h256v192z m0-256H704V192h256v192z" /></svg>
