<?xml version="1.0" standalone="no"?><!DOCTYPE svg PUBLIC "-//W3C//DTD SVG 1.1//EN" "http://www.w3.org/Graphics/SVG/1.1/DTD/svg11.dtd">
<svg xmlns="http://www.w3.org/2000/svg" class="icon" viewBox="0 0 1024 1024"><defs><style></style></defs><path d="M200 800h624c4.4 0 8 4.32 8 9.6v76.8c0 5.28-3.6 9.6-8 9.6H200c-4.4 0-8-4.32-8-9.6v-76.8c0-5.28 3.6-9.6 8-9.6zm312-72c-69.4 0-134.7-27-183.8-76.2C279.1 602.6 252 537.4 252 468V156c0-6.6 5.4-12 12-12h60c6.6 0 12 5.4 12 12v312c0 97 79 176 176 176s176-79 176-176V156c0-6.6 5.4-12 12-12h60c6.6 0 12 5.4 12 12v312c0 69.4-27 134.7-76.2 183.8C646.6 700.9 581.4 728 512 728z"></path></svg>