<?xml version="1.0" encoding="UTF-8"?>
<svg width="200px" height="200px" viewBox="0 0 200 200" version="1.1" xmlns="http://www.w3.org/2000/svg" xmlns:xlink="http://www.w3.org/1999/xlink">
    <!-- Generator: Sketch 63.1 (92452) - https://sketch.com -->
    <title>ai</title>
    <desc>Created with Sketch.</desc>
    <g id="ai" stroke="none" stroke-width="1" fill="none" fill-rule="evenodd">
        <g id="icon" transform="translate(14.000000, 0.000000)" fill-rule="nonzero">
            <path d="M0,7.5757632 L0,192.424237 C0,196.363632 3.93870618,200 7.57443797,200 L165.425562,200 C169.364268,200 173,196.060605 173,192.424237 L173,43.9394422 L129.068225,0.303105528 L7.57422316,0 C3.63573179,0 0,3.9393953 0,7.5757632 Z" id="路径" fill="#FF7C01"></path>
            <path d="M129,0 L129,34.5 C129,38.3999945 132.964553,42 136.624125,42 L172,42 L129,0 L129,0 Z" id="路径" fill="#FFBF87"></path>
        </g>
        <path d="M95.6758388,76.3240749 L115.986231,146 L103.226749,146 L97.9999122,126.860827 L78.8607397,126.860827 L73.6111261,146 L62,146 L81.1619493,76.3240749 L95.6758388,76.3240749 Z M136.32397,94.323973 L136.32397,145.999855 L124.129556,145.999855 L124.129556,94.323973 L136.32397,94.323973 Z M88.1204021,90.2592599 L81.7406537,115.805527 L95.0879946,115.805527 L88.1204021,90.2592599 Z M130.226741,74 C134.235905,74 137.485978,77.2500731 137.485978,81.2592369 L137.485978,81.2592369 L137.482098,81.4988565 C137.355672,85.3971042 134.155722,88.5184744 130.226741,88.5184744 C126.217577,88.5184744 122.967504,85.2684013 122.967504,81.2592375 L122.967504,81.2592375 L122.971385,81.0196179 C123.097811,77.1213702 126.297761,74 130.226741,74 Z" id="形状结合" fill="#FFFFFF" fill-rule="nonzero"></path>
    </g>
</svg>