<?xml version="1.0" standalone="no"?><!DOCTYPE svg PUBLIC "-//W3C//DTD SVG 1.1//EN" "http://www.w3.org/Graphics/SVG/1.1/DTD/svg11.dtd">
<svg xmlns="http://www.w3.org/2000/svg" class="icon" viewBox="0 0 1024 1024"><defs><style></style></defs><path d="M408 160h496q8 0 8 8v80q0 8-8 8H408q-8 0-8-8v-80q0-8 8-8zM408 565.333h496q8 0 8 8v80q0 8-8 8H408q-8 0-8-8v-80q0-8 8-8zM120 768h784q8 0 8 8v80q0 8-8 8H120q-8 0-8-8v-80q0-8 8-8zM120 362.667h784q8 0 8 8v80q0 8-8 8H120q-8 0-8-8v-80q0-8 8-8z"></path></svg>