<?xml version="1.0" encoding="UTF-8"?>
<svg width="200px" height="200px" viewBox="0 0 200 200" version="1.1" xmlns="http://www.w3.org/2000/svg" xmlns:xlink="http://www.w3.org/1999/xlink">
    <!-- Generator: Sketch 63.1 (92452) - https://sketch.com -->
    <title>axure</title>
    <desc>Created with Sketch.</desc>
    <g id="axure" stroke="none" stroke-width="1" fill="none" fill-rule="evenodd">
        <g id="icon" transform="translate(14.000000, 0.000000)" fill-rule="nonzero">
            <path d="M0,7.5757632 L0,192.424237 C0,196.363632 3.93870618,200 7.57443797,200 L165.425562,200 C169.364268,200 173,196.060605 173,192.424237 L173,43.9394422 L129.068225,0.303105528 L7.57422316,0 C3.63573179,0 0,3.9393953 0,7.5757632 Z" id="路径" fill="#CE65CC"></path>
            <path d="M129,0 L129,34.5 C129,38.3999945 132.964553,42 136.624125,42 L172,42 L129,0 L129,0 Z" id="路径" fill="#E293FF"></path>
        </g>
        <path d="M51,78 L75.9411338,78 C81.6666083,78 86.2156155,79.2550007 89.5096986,81.8432289 C92.9606695,84.6667506 94.7645862,88.7451708 94.7645862,94.0784895 C94.7645862,96.9804424 93.9802746,99.5686706 92.4116514,101.843174 C90.6861659,104.352971 88.2548001,106.000026 85.274416,106.784337 L85.274416,106.941199 C90.1371478,108.039236 92.8822384,111.254913 93.5096876,116.745094 L94.4508615,125.764677 C94.7645862,129.215648 95.9410535,131.960739 97.8234013,133.999949 L87.8626443,133.999949 C86.5293146,132.274463 85.745003,129.843098 85.4312784,126.705851 L84.7253979,119.803909 C84.4116733,116.745094 83.4704994,114.549022 81.9018763,113.215692 C80.2548219,111.803931 77.823456,111.176482 74.6862097,111.176482 L60.1764455,111.176482 L60.1764455,133.999949 L51,133.999949 L51,78 L51,78 Z M60.1764965,85.8431924 L60.1764965,103.333341 L74.6862608,103.333341 C78.294094,103.333341 81.0391846,102.549029 82.9215324,101.058837 C84.6470178,99.4902139 85.5097606,97.2941415 85.5097606,94.4706198 C85.5097606,91.4118046 84.6470178,89.2157322 82.9215324,87.8824025 C81.1960469,86.4706417 78.4509564,85.8431924 74.6862608,85.8431924 L60.1764965,85.8431924 L60.1764965,85.8431924 Z M105.666568,78.0001021 L128.88214,78.0001021 C142.372325,78.0001021 149.195861,83.7255767 149.195861,95.1765768 C149.195861,106.705957 142.37235,112.509812 128.72538,112.509812 L114.843039,112.509812 L114.843039,134 L105.666568,134 L105.666568,78.0001021 L105.666568,78.0001021 Z M114.843014,85.8432179 L114.843014,104.666696 L128.176311,104.666696 C132.254731,104.666696 135.235115,103.882384 137.117463,102.470623 C138.99981,100.980431 139.940984,98.5490655 139.940984,95.1765257 C139.940984,91.8039859 138.921379,89.4510512 137.039031,88.0392903 C135.156684,86.5490983 132.1763,85.8432179 128.176311,85.8432179 L114.843014,85.8432179 L114.843014,85.8432179 Z" id="形状" fill="#FFFFFF" fill-rule="nonzero"></path>
    </g>
</svg>