<?xml version="1.0" standalone="no"?><!DOCTYPE svg PUBLIC "-//W3C//DTD SVG 1.1//EN" "http://www.w3.org/Graphics/SVG/1.1/DTD/svg11.dtd">
<svg xmlns="http://www.w3.org/2000/svg" class="icon" viewBox="0 0 1024 1024"><defs><style></style></defs><path d="M328 446h224.68C609.742 446 656 401.554 656 346.727v-9.454C656 282.446 609.742 238 552.68 238H328v208zm369.815 35.426C754.606 519.186 792 583.508 792 656.508v10.984C792 783.752 697.155 878 580.158 878h-318.67C245.202 878 232 864.798 232 848.512V169.39c0-15.127 12.263-27.39 27.39-27.39h295.9C663.93 142 752 229.267 752 336.915v10.17c0 52.073-20.609 99.378-54.185 134.341zM328 542.671V781.33h251.134c63.78 0 115.485-50.997 115.485-113.905v-10.848c0-62.908-51.705-113.905-115.485-113.905H328z"></path></svg>