<?xml version="1.0" standalone="no"?><!DOCTYPE svg PUBLIC "-//W3C//DTD SVG 1.1//EN" "http://www.w3.org/Graphics/SVG/1.1/DTD/svg11.dtd">
<svg class="icon" viewBox="0 0 1024 1024" version="1.1" xmlns="http://www.w3.org/2000/svg" p-id="4608" xmlns:xlink="http://www.w3.org/1999/xlink" width="200" height="200"><defs></defs><path d="M360 160h560a8 8 0 018 8v80a8 8 0 01-8 8H360a8 8 0 01-8-8v-80a8 8 0 018-8zm0 304h560a8 8 0 018 8v80a8 8 0 01-8 8H360a8 8 0 01-8-8v-80a8 8 0 018-8zm0 304h560a8 8 0 018 8v80a8 8 0 01-8 8H360a8 8 0 01-8-8v-80a8 8 0 018-8zM96 208a80 80 0 10160 0 80 80 0 10-160 0zM96 512a80 80 0 10160 0 80 80 0 10-160 0zM96 816a80 80 0 10160 0 80 80 0 10-160 0z"></path></svg>