<?xml version="1.0" encoding="UTF-8"?>
<svg width="200px" height="200px" viewBox="0 0 200 200" version="1.1" xmlns="http://www.w3.org/2000/svg" xmlns:xlink="http://www.w3.org/1999/xlink">
    <!-- Generator: Sketch 57.1 (83088) - https://sketch.com -->
    <title>common</title>
    <desc>Created with Sketch.</desc>
    <g id="common" stroke="none" stroke-width="1" fill="none" fill-rule="evenodd">
        <g id="icon" transform="translate(14.000000, 0.000000)" fill-rule="nonzero">
            <path d="M0,7.5757632 L0,192.424237 C0,196.363632 3.93870618,200 7.57443797,200 L165.425562,200 C169.364268,200 173,196.060605 173,192.424237 L173,43.9394422 L129.068225,0.303105528 L7.57422316,0 C3.63573179,0 0,3.9393953 0,7.5757632 Z" id="路径" fill="#95A8B7"></path>
            <path d="M129,34.5 C129,38.3999945 132.964553,42 136.624125,42 L172,42 L129,0 L129,34.5 Z" id="路径" fill="#C8DDFF"></path>
            <path d="M39,112.82359 C39,99.959399 49.4299533,89.5294456 62.2941448,89.5294456 C64.5070885,89.5294456 66.6093851,89.9370932 68.6359757,90.5136233 C70.86639,79.9730228 80.2073421,72.0588371 91.4118257,72.0588371 C104.276017,72.0588371 114.70597,82.4887904 114.70597,95.3529818 C114.70597,97.4086901 114.350735,99.3653983 113.855734,101.263871 C114.141087,101.2464 114.414794,101.176518 114.70597,101.176518 C124.35557,101.176518 132.176579,109.003351 132.176579,118.647127 L132.176579,124.470663 L132.176579,124.470663 C132.176579,134.119443 124.354724,141.941271 114.70597,141.941271 L62.2941448,141.941271 C49.4299533,141.941271 39,131.511318 39,118.647127 L39,112.82359 Z" id="路径" fill="#FFFFFF"></path>
        </g>
    </g>
</svg>