<?xml version="1.0" encoding="UTF-8"?>
<svg width="200px" height="200px" viewBox="0 0 200 200" version="1.1" xmlns="http://www.w3.org/2000/svg" xmlns:xlink="http://www.w3.org/1999/xlink">
    <!-- Generator: Sketch 63.1 (92452) - https://sketch.com -->
    <title>css</title>
    <desc>Created with Sketch.</desc>
    <g id="css" stroke="none" stroke-width="1" fill="none" fill-rule="evenodd">
        <g id="icon" transform="translate(14.000000, 0.000000)" fill-rule="nonzero">
            <path d="M0,7.5757632 L0,192.424237 C0,196.363632 3.93870618,200 7.57443797,200 L165.425562,200 C169.364268,200 173,196.060605 173,192.424237 L173,43.9394422 L129.068225,0.303105528 L7.57422316,0 C3.63573179,0 0,3.9393953 0,7.5757632 Z" id="路径" fill="#FC7100"></path>
            <path d="M129,0 L129,34.5 C129,38.3999945 132.964553,42 136.624125,42 L172,42 L129,0 L129,0 Z" id="路径" fill="#FFB596"></path>
            <polygon id="路径" fill="#FFFFFF" points="58.6836364 74 125.545455 74 113.730909 133.982545 78.0123636 146 47 133.982545 50.1549091 117.965818 63.3636364 117.965818 62.0545455 124.583273 80.8007273 131.829091 102.400727 124.583273 105.418182 109.345455 51.7454545 109.345455 54.3309091 95.96 108.042909 95.96 109.731636 87.3658182 56.0589091 87.3658182"></polygon>
        </g>
    </g>
</svg>