<?xml version="1.0" standalone="no"?><!DOCTYPE svg PUBLIC "-//W3C//DTD SVG 1.1//EN" "http://www.w3.org/Graphics/SVG/1.1/DTD/svg11.dtd"><svg class="icon" width="200px" height="193.21px" viewBox="0 0 1060 1024" version="1.1" xmlns="http://www.w3.org/2000/svg"><path d="M562.912 767.5l103.044 103.044c14.059 14.059 14.059 36.853 0 50.912-14.059 14.059-36.853 14.059-50.912 0L512 818.412 408.956 921.456c-14.059 14.059-36.853 14.059-50.912 0-14.059-14.059-14.059-36.853 0-50.912L461.088 767.5 358.044 664.456c-14.059-14.059-14.059-36.853 0-50.912 14.059-14.059 36.853-14.059 50.912 0L512 716.588l103.044-103.044c14.059-14.059 36.853-14.059 50.912 0 14.059 14.059 14.059 36.853 0 50.912L562.912 767.5zM150.5 434.75h163.25c19.882 0 36 16.118 36 36s-16.118 36-36 36H121.846c-2.372 0.492-4.829 0.75-7.346 0.75-19.882 0-36-16.118-36-36v-342c0-19.882 16.118-36 36-36s36 16.118 36 36v305.25zM912 507.497c-0.166 0.002-0.333 0.003-0.5 0.003h-200c-19.882 0-36-16.118-36-36s16.118-36 36-36h165v-306c0-19.882 16.118-36 36-36s36 16.118 36 36v342c0 19.882-16.118 36-36 36-0.167 0-0.334-0.001-0.5-0.003z"  /><path d="M416.5 127v381.89a32 32 0 0 0 14.713 26.93l64 41.083a32 32 0 0 0 34.574 0l64-41.083a32 32 0 0 0 14.713-26.93V127c0-17.673-14.327-32-32-32h-128c-17.673 0-32 14.327-32 32z"  /></svg>
