<?xml version="1.0" standalone="no"?><!DOCTYPE svg PUBLIC "-//W3C//DTD SVG 1.1//EN" "http://www.w3.org/Graphics/SVG/1.1/DTD/svg11.dtd"><svg class="icon" width="200px" height="200.00px" viewBox="0 0 1024 1024" version="1.1" xmlns="http://www.w3.org/2000/svg"><path d="M767.5 462.588l103.044-103.044c14.059-14.059 36.853-14.059 50.912 0 14.059 14.059 14.059 36.853 0 50.912L818.412 513.5l103.044 103.044c14.059 14.059 14.059 36.853 0 50.912-14.059 14.059-36.853 14.059-50.912 0L767.5 564.412 664.456 667.456c-14.059 14.059-36.853 14.059-50.912 0-14.059-14.059-14.059-36.853 0-50.912L716.588 513.5 613.544 410.456c-14.059-14.059-14.059-36.853 0-50.912 14.059-14.059 36.853-14.059 50.912 0L767.5 462.588zM434.75 875V711.75c0-19.882 16.118-36 36-36s36 16.118 36 36v191.904c0.492 2.372 0.75 4.829 0.75 7.346 0 19.882-16.118 36-36 36h-342c-19.882 0-36-16.118-36-36s16.118-36 36-36h305.25z m72.747-761.5c0.002 0.166 0.003 0.333 0.003 0.5v200c0 19.882-16.118 36-36 36s-36-16.118-36-36V149h-306c-19.882 0-36-16.118-36-36s16.118-36 36-36h342c19.882 0 36 16.118 36 36 0 0.167-0.001 0.334-0.003 0.5z"  /><path d="M127 609h381.89a32 32 0 0 0 26.93-14.713l41.083-64a32 32 0 0 0 0-34.574l-41.083-64A32 32 0 0 0 508.89 417H127c-17.673 0-32 14.327-32 32v128c0 17.673 14.327 32 32 32z"  /></svg>
