<?xml version="1.0" encoding="UTF-8"?>
<svg width="200px" height="200px" viewBox="0 0 200 200" version="1.1" xmlns="http://www.w3.org/2000/svg" xmlns:xlink="http://www.w3.org/1999/xlink">
    <!-- Generator: Sketch 57.1 (83088) - https://sketch.com -->
    <title>excel</title>
    <desc>Created with Sketch.</desc>
    <g id="excel" stroke="none" stroke-width="1" fill="none" fill-rule="evenodd">
        <g transform="translate(14.000000, 0.000000)" fill-rule="nonzero">
            <path d="M0,7.5757632 L0,192.424237 C0,196.363632 3.93870618,200 7.57443797,200 L165.425562,200 C169.364268,200 173,196.060605 173,192.424237 L173,43.9394422 L129.068225,0.303105528 L7.57422316,0 C3.63573179,0 0,3.9393953 0,7.5757632 Z" id="路径" fill="#05B67B"></path>
            <path d="M129,0 L129,34.5 C129,38.3999945 132.964553,42 136.624125,42 L172,42 L129,0 L129,0 Z" id="路径" fill="#99FFB4"></path>
            <path d="M121.55,146.08 L105.08,146.08 C103.28,142.75 101.3,139.51 99.05,136.09 L86.36,116.83 L73.76,136 C71.6,139.24 69.35,143.11 67.73,146.08 L51.35,146.08 C56.66,139.33 57.92,137.62 59.81,135.01 L78.89,108.19 L62.33,84.79 C59.9,81.37 57.2,77.86 54.41,74.44 L70.52,74.44 C71.69,77.14 73.85,80.92 76.28,84.52 L86.54,99.82 L96.53,84.52 C99.86,79.3 100.94,77.5 102.2,74.44 L118.22,74.44 C115.7,77.59 113.09,81.01 110.39,84.79 L93.83,108.1 L112.91,134.92 C114.98,137.89 117.14,140.68 121.55,146.08 Z" id="X" fill="#FFFFFF"></path>
        </g>
    </g>
</svg>