<?xml version="1.0" encoding="UTF-8"?>
<svg width="200px" height="200px" viewBox="0 0 200 200" version="1.1" xmlns="http://www.w3.org/2000/svg" xmlns:xlink="http://www.w3.org/1999/xlink">
    <!-- Generator: Sketch 57.1 (83088) - https://sketch.com -->
    <title>exe</title>
    <desc>Created with Sketch.</desc>
    <g id="exe" stroke="none" stroke-width="1" fill="none" fill-rule="evenodd">
        <g id="icon" transform="translate(14.000000, 0.000000)" fill-rule="nonzero">
            <path d="M0,7.65559066 L0,192.344507 C0,196.172264 3.83380416,200 7.66758867,200 L165.332411,200 C169.166215,200 173,196.172244 173,192.344507 L173,43.5407058 L128.911291,0 L7.66749039,0 C3.83378451,0 0,3.8278542 0,7.65559066 Z" id="路径" fill="#32B3C7"></path>
            <path d="M129,0 L129,35.4395764 C129,39.2197979 132.780318,43 136.56052,43 L172,43 L129,0 L129,0 Z" id="路径" fill="#B2F5FF"></path>
            <path d="M27,82 L59.2179013,82 L59.2179013,90.8716051 L37.7392913,90.8716051 L37.7392913,103.011675 L55.9494094,103.011675 L55.9494094,111.88328 L37.7392913,111.88328 L37.7392913,125.891063 L60.1517444,125.891063 L60.1517444,134.762668 L27.4668258,134.762668 L27.4668258,82 L27,82 Z M79.295815,107.21401 L65.7549671,82 L77.4281288,82 L82.5643069,92.7392913 C83.9650852,95.0739209 84.8989365,97.8754693 86.2997066,101.143961 L86.7666336,101.143961 C88.1674119,97.8754693 89.1012632,95.5408479 90.0351255,92.7392913 L95.1713035,82 L105.910595,82 L92.3697469,107.680945 L106.844465,133.828798 L95.1713035,133.828798 L89.5681902,122.155636 C88.1674119,119.354079 87.2335606,116.552523 85.3658553,113.750966 L84.8989283,113.750966 C83.49815,117.019458 82.5642987,119.821015 81.1635286,122.155636 L75.5604153,133.828798 L64.3541888,133.828798 L79.295815,107.21401 L79.295815,107.21401 Z M114.315081,82 L146.066157,82 L146.066157,90.8716051 L124.587547,90.8716051 L124.587547,103.011675 L142.797665,103.011675 L142.797665,111.88328 L124.587547,111.88328 L124.587547,125.891063 L147,125.891063 L147,134.762668 L114.315081,134.762668 L114.315081,82 L114.315081,82 Z" id="形状" fill="#FFFFFF"></path>
        </g>
    </g>
</svg>