<?xml version="1.0" standalone="no"?><!DOCTYPE svg PUBLIC "-//W3C//DTD SVG 1.1//EN" "http://www.w3.org/Graphics/SVG/1.1/DTD/svg11.dtd"><svg t="1590496996782" class="icon" viewBox="0 0 1024 1024" version="1.1" xmlns="http://www.w3.org/2000/svg" p-id="9762" xmlns:xlink="http://www.w3.org/1999/xlink" width="200" height="200"><defs></defs><path d="M862.8 207.9c-65-65-170.4-65-235.4 0l-306 306c-39 39-39 102.2 0 141.2 39 39 102.2 39 141.2 0L698 419.7c13-13 13-34.1 0-47.1s-34.1-13-47.1 0L415.6 608.1c-13 13-34.1 13-47.1 0s-13-34.1 0-47.1l306-306c39-39 102.2-39 141.2 0 39 39 39 102.2 0 141.2l-353 353.1c-65 65-170.4 65-235.4 0s-65-170.4 0-235.4l282.5-282.5c13-13 13-34.1 0-47.1s-34.1-13-47.1 0L180.2 466.9c-91 91-91 238.5 0 329.5s238.5 91 329.5 0l353.1-353.1c65-65 65-170.4 0-235.4z m0 0" p-id="9763"></path></svg>