<?xml version="1.0" standalone="no"?><!DOCTYPE svg PUBLIC "-//W3C//DTD SVG 1.1//EN" "http://www.w3.org/Graphics/SVG/1.1/DTD/svg11.dtd"><svg class="icon" width="200px" height="200.00px" viewBox="0 0 1024 1024" version="1.1" xmlns="http://www.w3.org/2000/svg"><path d="M222.094222 172.430222h127.089778c21.162667 0 35.271111-14.108444 35.271111-35.271111s-14.108444-35.271111-35.271111-35.271111H130.332444c-7.054222 0-14.108444 7.054222-21.162666 14.108444-7.054222 7.054222-7.054222 14.108444-7.054222 21.162667v211.797333c0 21.162667 14.108444 35.271111 35.271111 35.271112s35.271111-14.108444 35.271111-35.271112V221.866667l190.634666 190.577777c14.108444 14.108444 35.271111 14.108444 49.436445 0 14.108444-14.108444 14.108444-35.328 0-49.436444l-190.634667-190.577778z m141.198222 465.92l-190.634666 190.634667v-127.089778c0-21.162667-14.108444-35.271111-35.271111-35.271111s-35.271111 14.108444-35.271111 35.271111v211.797333c0 21.162667 14.108444 35.271111 35.271111 35.271112h211.797333c21.162667 0 35.271111-14.108444 35.271111-35.271112s-14.108444-35.271111-35.271111-35.271111H222.094222l63.544889-63.544889 127.089778-127.089777c14.108444-14.108444 14.108444-35.271111 0-49.436445-14.165333-14.108444-35.328-14.108444-49.436445 0z m550.684445 28.273778c-21.162667 0-35.271111 14.108444-35.271111 35.271111v127.089778l-190.634667-190.634667c-14.108444-14.108444-35.271111-14.108444-49.436444 0-14.108444 14.108444-14.108444 35.271111 0 49.436445l190.634666 190.634666h-127.089777c-21.162667 0-35.271111 14.108444-35.271112 35.271111s14.108444 35.271111 35.271112 35.271112h211.797333c21.162667 0 35.271111-14.108444 35.271111-35.271112v-211.797333c0-21.162667-14.108444-35.271111-35.271111-35.271111z m0-564.792889h-211.797333c-21.162667 0-35.271111 14.108444-35.271112 35.271111s14.108444 35.271111 35.271112 35.271111h127.089777l-190.634666 190.634667c-14.108444 14.108444-14.108444 35.271111 0 49.436444 14.108444 14.108444 35.271111 14.108444 49.436444 0l127.089778-127.089777L878.648889 221.866667v127.089777c0 21.162667 14.108444 35.271111 35.271111 35.271112s35.271111-14.108444 35.271111-35.271112V137.102222c0.056889-21.162667-14.051556-35.271111-35.214222-35.271111z m0 0" /></svg>
