<?xml version="1.0" encoding="UTF-8"?>
<svg width="200px" height="200px" viewBox="0 0 200 200" version="1.1" xmlns="http://www.w3.org/2000/svg" xmlns:xlink="http://www.w3.org/1999/xlink">
    <!-- Generator: Sketch 57.1 (83088) - https://sketch.com -->
    <title>html</title>
    <desc>Created with Sketch.</desc>
    <g id="html" stroke="none" stroke-width="1" fill="none" fill-rule="evenodd">
        <g id="icon" transform="translate(14.000000, 0.000000)" fill-rule="nonzero">
            <path d="M0,7.5757632 L0,192.424237 C0,196.363632 3.93870618,200 7.57443797,200 L165.425562,200 C169.364268,200 173,196.060605 173,192.424237 L173,43.9394422 L129.068225,0.303105528 L7.57422316,0 C3.63573179,0 0,3.9393953 0,7.5757632 Z" id="路径" fill="#0DB1FD"></path>
            <path d="M129,0 L129,34.5 C129,38.3999945 132.964553,42 136.624125,42 L172,42 L129,0 L129,0 Z" id="路径" fill="#DBF4FF"></path>
        </g>
        <g transform="translate(61.000000, 64.000000)" fill="#FFFFFF" fill-rule="nonzero" id="形状">
            <path d="M0.205319839,0.0447543378 L77.8019064,0.0447543378 L71.4546699,73.7076005 L38.5567744,83.8095244 L7.26795827,73.7076005 L0.205319839,0.0447543378 L0.205319839,0.0447543378 Z M62.3362485,22.3044752 L64.2135841,11.13005 L14.2406241,11.0404572 L17.4589954,44.5643057 L49.9993904,44.5643057 L49.9993904,53.3251939 L39.0930905,57.1692891 L27.7395059,53.1465091 L27.0246933,48.4084173 L18.0848094,48.4979258 L19.4258452,60.2981404 L38.5567826,67.0031639 L58.6710917,60.6559273 L61.2633217,33.6580164 L25.8621049,33.6580164 L24.968272,22.3045955 L62.3362322,22.3045955 L62.3362322,22.3045117 L62.3362485,22.3044752 Z"></path>
        </g>
    </g>
</svg>