<?xml version="1.0" standalone="no"?><!DOCTYPE svg PUBLIC "-//W3C//DTD SVG 1.1//EN" "http://www.w3.org/Graphics/SVG/1.1/DTD/svg11.dtd">
<svg xmlns="http://www.w3.org/2000/svg" class="icon" viewBox="0 0 1024 1024"><defs><style></style></defs><path d="M408 363h480q8 0 8 8v80q0 8-8 8H408q-8 0-8-8v-80q0-8 8-8zM408 565.333h480q8 0 8 8v80q0 8-8 8H408q-8 0-8-8v-80q0-8 8-8zM120 160h784q8 0 8 8v80q0 8-8 8H120q-8 0-8-8v-80q0-8 8-8zM120 768h784q8 0 8 8v80q0 8-8 8H120q-8 0-8-8v-80q0-8 8-8zM305.25 524.292L141.121 661.065A8 8 0 01128 654.92V369.08a8 8 0 0113.121-6.145l164.13 136.773c6.788 5.657 7.705 15.747 2.048 22.535a16 16 0 01-2.049 2.049z"></path></svg>