<?xml version="1.0" standalone="no"?><!DOCTYPE svg PUBLIC "-//W3C//DTD SVG 1.1//EN" "http://www.w3.org/Graphics/SVG/1.1/DTD/svg11.dtd"><svg class="icon" width="200px" height="200.00px" viewBox="0 0 1024 1024" version="1.1" xmlns="http://www.w3.org/2000/svg"><path d="M636.5 137.5v139H148.375c-19.882 0-36 16.118-36 36s16.118 36 36 36H636.5v140H148.375c-19.882 0-36 16.118-36 36s16.118 36 36 36H636.5V637c0 19.882 16.118 36 36 36s36-16.118 36-36V101.5c0-19.882-16.118-36-36-36-2.395 0-4.736 0.234-7 0.68a36.178 36.178 0 0 0-7-0.68h-511c-19.882 0-36 16.118-36 36s16.118 36 36 36h489z m-363.222 737H403.5c19.882 0 36-16.118 36-36s-16.118-36-36-36H273.278v-69.844a16 16 0 0 0-3.632-10.15c-5.605-6.83-15.687-7.824-22.518-2.219L118.351 825.96a16 16 0 0 0-2.22 2.219c-5.605 6.831-4.611 16.913 2.22 22.518L247.128 956.37a16 16 0 0 0 10.15 3.631c8.836 0 16-7.163 16-16v-69.5zM531 742c-17.673 0-32 14.327-32 32v128c0 17.673 14.327 32 32 32h349c17.673 0 32-14.327 32-32V774c0-17.673-14.327-32-32-32H531z" /></svg>
