<?xml version="1.0" standalone="no"?><!DOCTYPE svg PUBLIC "-//W3C//DTD SVG 1.1//EN" "http://www.w3.org/Graphics/SVG/1.1/DTD/svg11.dtd">
<svg xmlns="http://www.w3.org/2000/svg" class="icon" viewBox="0 0 1024 1024"><defs><style></style></defs><path d="M575.414 663.972l39.671 39.671c3.887 3.887 3.887 10.263 0 14.15L498.877 834c-85.333 85.332-223.545 85.332-308.878 0-85.332-85.333-85.332-223.545 0-308.878l116.209-116.208c3.886-3.887 10.262-3.887 14.149 0l39.77 39.771c3.888 3.887 3.888 10.262 0 14.149L243.92 579.043c-26.219 26.219-41.191 61.703-41.904 98.466-.735 37.95 13.674 74.442 41.905 102.673 28.178 28.226 64.667 42.637 102.632 41.902 36.78-.713 72.289-15.688 98.504-41.903l116.208-116.209c3.887-3.886 10.262-3.886 14.149 0zM448.586 360.028l-39.671-39.671c-3.887-3.887-3.887-10.263 0-14.15L525.123 190c85.333-85.332 223.545-85.332 308.878 0 85.332 85.333 85.332 223.545 0 308.878L717.792 615.085c-3.886 3.887-10.262 3.887-14.149 0l-39.77-39.771c-3.888-3.887-3.888-10.262 0-14.149L780.08 444.957c26.219-26.219 41.191-61.703 41.904-98.466.735-37.95-13.674-74.442-41.905-102.673-28.178-28.226-64.667-42.637-102.632-41.902-36.78.713-72.289 15.688-98.504 41.903L462.735 360.028c-3.887 3.886-10.262 3.886-14.149 0zm-77.674 237.304l226.42-226.42c3.883-3.883 10.252-3.883 14.135 0l39.621 39.621c3.883 3.883 3.883 10.252 0 14.135l-226.42 226.42c-3.883 3.883-10.252 3.883-14.135 0l-39.621-39.621c-3.883-3.883-3.883-10.252 0-14.135z"></path></svg>