<?xml version="1.0" encoding="UTF-8"?>
<svg width="200px" height="200px" viewBox="0 0 200 200" version="1.1" xmlns="http://www.w3.org/2000/svg" xmlns:xlink="http://www.w3.org/1999/xlink">
    <!-- Generator: Sketch 57.1 (83088) - https://sketch.com -->
    <title>music</title>
    <desc>Created with Sketch.</desc>
    <g id="music" stroke="none" stroke-width="1" fill="none" fill-rule="evenodd">
        <g id="icon" transform="translate(14.000000, 0.000000)" fill-rule="nonzero">
            <path d="M0,7.5757632 L0,192.424237 C0,196.363632 3.93870618,200 7.57443797,200 L165.425562,200 C169.364268,200 173,196.060605 173,192.424237 L173,43.9394422 L129.068225,0.303105528 L7.57422316,0 C3.63573179,0 0,3.9393953 0,7.5757632 Z" id="路径" fill="#CA82F1"></path>
            <path d="M129,0 L129,34.5 C129,38.3999945 132.964553,42 136.624125,42 L172,42 L129,0 L129,0 Z" id="路径" fill="#EBBEFF"></path>
            <path d="M65.9897333,77.9781519 L129,65 L128.940654,83.5402294 L128.940654,129.887109 L128.896145,129.887109 C128.896145,135.271192 122.913355,140.644132 114.59757,142.349851 C105.491688,144.214999 97.0646372,140.981582 95.7738323,135.126582 C94.4830622,129.26787 100.818213,123.004983 109.924086,121.139861 C114.159886,120.272178 118.232481,120.516909 121.526203,121.603366 L121.526203,85.0790807 L73.333806,95.0981906 L73.333806,141.014925 L73.2855876,141.014925 C73.2930058,146.395297 67.3065102,151.76456 58.9906646,153.470279 C49.8847824,155.33913 41.4577313,152.105722 40.1669264,146.24701 C38.8761563,140.392009 45.2113071,134.129149 54.3171806,132.26394 C58.5529803,131.39255 62.6255753,131.640988 65.919297,132.727445 L65.919297,77.9781727 L65.98977,77.9781727 L65.9897333,77.9781519 Z" id="路径" fill="#FFFFFF"></path>
        </g>
    </g>
</svg>