<?xml version="1.0" standalone="no"?><!DOCTYPE svg PUBLIC "-//W3C//DTD SVG 1.1//EN" "http://www.w3.org/Graphics/SVG/1.1/DTD/svg11.dtd">
<svg xmlns="http://www.w3.org/2000/svg" class="icon" viewBox="0 0 1024 1024"><defs><style></style></defs><path d="M359.68 764h560.64c4.224 0 7.68 4.8 7.68 10.667v74.666c0 5.867-3.456 10.667-7.68 10.667H359.68c-4.224 0-7.68-4.8-7.68-10.667v-74.666c0-5.867 3.456-10.667 7.68-10.667zm0-600h560.64c4.224 0 7.68 4.8 7.68 10.667v74.666c0 5.867-3.456 10.667-7.68 10.667H359.68c-4.224 0-7.68-4.8-7.68-10.667v-74.666c0-5.867 3.456-10.667 7.68-10.667zm0 300h560.64c4.224 0 7.68 4.8 7.68 10.667v74.666c0 5.867-3.456 10.667-7.68 10.667H359.68c-4.224 0-7.68-4.8-7.68-10.667v-74.666c0-5.867 3.456-10.667 7.68-10.667zM172.384 728H99.968c-2.182 0-3.968 1.8-3.968 4v34c0 2.2 1.786 4 3.968 4h72.416v20.5h-35.712c-2.182 0-3.968 1.8-3.968 4v34c0 2.2 1.786 4 3.968 4h35.712V854H99.968c-2.182 0-3.968 1.8-3.968 4v34c0 2.2 1.786 4 3.968 4h116.064c2.182 0 3.968-1.8 3.968-4V732c0-2.2-1.786-4-3.968-4h-43.648zM142 296h40c2.2 0 4-1.8 4-4V136a8 8 0 00-8-8h-78c-2.2 0-4 1.8-4 4v36c0 2.2 1.8 4 4 4h38v120c0 2.2 1.8 4 4 4zm74.032 256h-68.448l70.333-77.7c1.29-1.5 2.083-3.4 2.083-5.4V432c0-2.2-1.786-4-3.968-4H99.968c-2.182 0-3.968 1.8-3.968 4v36c0 2.2 1.786 4 3.968 4h68.448l-70.333 77.7c-1.29 1.5-2.083 3.4-2.083 5.4V592c0 2.2 1.786 4 3.968 4h116.064c2.182 0 3.968-1.8 3.968-4v-36c0-2.2-1.786-4-3.968-4z"></path></svg>