<?xml version="1.0" encoding="UTF-8"?>
<svg width="200px" height="200px" viewBox="0 0 200 200" version="1.1" xmlns="http://www.w3.org/2000/svg" xmlns:xlink="http://www.w3.org/1999/xlink">
    <!-- Generator: Sketch 63.1 (92452) - https://sketch.com -->
    <title>php</title>
    <desc>Created with Sketch.</desc>
    <g id="php" stroke="none" stroke-width="1" fill="none" fill-rule="evenodd">
        <g id="icon" transform="translate(14.000000, 0.000000)" fill-rule="nonzero">
            <path d="M0,7.5757632 L0,192.424237 C0,196.363632 3.93870618,200 7.57443797,200 L165.425562,200 C169.364268,200 173,196.060605 173,192.424237 L173,43.9394422 L129.068225,0.303105528 L7.57422316,0 C3.63573179,0 0,3.9393953 0,7.5757632 Z" id="路径" fill="#8283F1"></path>
            <path d="M129,0 L129,34.5 C129,38.3999945 132.964553,42 136.624125,42 L172,42 L129,0 L129,0 Z" id="路径" fill="#AEAFFF"></path>
        </g>
        <path d="M65.7555735,98.0267956 L56.5730653,98.0267956 L52.8022375,120.926636 L61.3833695,120.926636 C61.3833695,120.926636 71.8231173,121.249682 72.314888,106.090479 C72.8065621,97.3823667 65.7555858,98.0268204 65.7555858,98.0268204 L65.7555858,98.0268204 L65.7555735,98.0267956 Z M144.135697,98.0267956 L134.953375,98.0267956 L131.18246,120.926636 L139.763493,120.926636 C139.763493,120.926636 150.203328,121.249682 150.695098,106.090479 C151.186772,97.3823667 144.135697,98.0268204 144.135697,98.0268204 L144.135697,98.0268204 L144.135697,98.0267956 Z M60.9455291,129.442007 L51.6545044,129.356471 L49.030494,143.762473 L39.0832347,143.762473 L48.0470516,89.5762448 C48.0470516,89.5762448 60.7818077,89.769764 69.1445949,89.5762448 C77.5070356,89.3825436 85.7309505,96.3564038 81.8800935,112.153716 C77.2882949,130.99022 60.9455291,129.441982 60.9455291,129.441982 L60.9455291,129.441982 L60.9455291,129.442007 Z M105.656209,129.442007 C105.656209,129.442007 108.044153,116.850059 109.089966,108.106987 C109.520181,104.50795 111.395728,98.4137994 106.425402,98.3997662 C102.26246,98.3871846 96.0369738,98.3488971 96.0369738,98.3488971 L90.7893118,129.442804 L80.9505814,129.442804 L90.133894,74.9973687 L100.208232,74.9973687 L97.6765395,89.5720419 L108.061614,89.5720419 C108.061614,89.5720419 121.8355,88.2862902 120.195885,101.703961 C118.555404,115.121447 115.494753,129.442804 115.494753,129.442804 L105.656196,129.442804 L105.656196,129.441989 L105.656209,129.442007 Z M160.260341,112.153617 C155.668728,130.990121 139.326519,129.441883 139.326519,129.441883 L130.034579,129.356347 L127.410655,143.762349 L117.463309,143.762349 L126.427225,89.5761212 C126.427225,89.5761212 139.162105,89.7696404 147.524644,89.5761212 C155.887184,89.38242 164.111,96.3562802 160.260267,112.153592 L160.260267,112.153592 L160.260341,112.153617 Z" id="形状" fill="#FFFFFF" fill-rule="nonzero"></path>
    </g>
</svg>