<?xml version="1.0" encoding="UTF-8"?>
<svg width="200px" height="200px" viewBox="0 0 200 200" version="1.1" xmlns="http://www.w3.org/2000/svg" xmlns:xlink="http://www.w3.org/1999/xlink">
    <!-- Generator: Sketch 57.1 (83088) - https://sketch.com -->
    <title>pkg</title>
    <desc>Created with Sketch.</desc>
    <g id="pkg" stroke="none" stroke-width="1" fill="none" fill-rule="evenodd">
        <g id="icon" transform="translate(14.000000, 0.000000)" fill-rule="nonzero">
            <path d="M0,7.65559066 L0,192.344507 C0,196.172264 3.83380416,200 7.66758867,200 L165.332411,200 C169.166215,200 173,196.172244 173,192.344507 L173,43.5407058 L128.911291,0 L7.66749039,0 C3.83378451,0 0,3.8278542 0,7.65559066 Z" id="路径" fill="#83C620"></path>
            <path d="M129,0 L129,35.4395764 C129,39.2197979 132.780318,43 136.56052,43 L172,43 L129,0 L129,0 Z" id="路径" fill="#DDFFAA"></path>
            <path d="M135.815646,82 C142.552463,82 147.740394,83.3096634 150.295518,84.5436381 L147.818535,93.9385751 C144.95336,92.708237 141.389942,91.7051921 135.661648,91.7051921 C125.827518,91.7051921 118.392686,97.2541009 118.392686,108.500114 C118.392686,119.208351 125.129503,125.522101 134.809407,125.522101 C137.518528,125.522101 139.687516,125.215483 140.615842,124.753623 L140.615842,113.890144 L132.562507,113.890144 L132.562507,104.726137 L151.998401,104.726137 L151.998401,132.074055 L152,132.074055 C148.360497,133.304393 141.467855,135 134.57704,135 C125.051362,135 118.160319,132.611603 113.358523,127.989823 C108.558556,123.519648 105.925519,116.744038 106.001604,109.116987 C106.079517,91.8604334 118.702737,82 135.815646,82 Z M74.7624596,82 L74.7624596,104.989848 L74.9959804,104.989848 C76.1633544,102.984217 77.4093348,101.134075 78.5787774,99.2839325 L90.4961515,82 L105.062239,82 L87.6922933,104.140699 L106,134 L92.1342445,134 L79.2809487,111.548554 L74.7624596,117.030457 L74.7624596,134 L63,134 L63,82 L74.7624596,82 Z M34.7492547,82 C41.9337426,82 47.0555945,83.3773592 50.4967048,86.1323037 C53.783749,88.7401339 56,93.0267832 56,98.0844824 C56,103.138566 54.3190328,107.428831 51.2611704,110.337895 C47.2868064,114.089871 41.4002634,115.772306 34.5200729,115.772306 C32.9911417,115.772306 31.614472,115.697054 30.5439044,115.542708 L30.5439044,134 L19,134 L19,83.0725097 C22.5931463,82.4591951 27.6380779,82 34.7492547,82 Z M35.3616844,90.8042519 C32.9913673,90.8042519 31.3873204,91.0338495 30.5457089,91.263447 L30.5457089,106.508633 C31.5393563,106.73823 32.7621855,106.813482 34.4431527,106.813482 C40.6357978,106.813482 44.4581258,103.671205 44.4581258,98.3872981 C44.4581258,93.638064 41.1710816,90.8042519 35.3616844,90.8042519 Z" id="形状结合" fill="#FFFFFF"></path>
        </g>
        <g transform="translate(33.000000, 82.000000)"></g>
    </g>
</svg>