<?xml version="1.0" encoding="UTF-8"?>
<svg width="200px" height="200px" viewBox="0 0 200 200" version="1.1" xmlns="http://www.w3.org/2000/svg" xmlns:xlink="http://www.w3.org/1999/xlink">
    <!-- Generator: Sketch 57.1 (83088) - https://sketch.com -->
    <title>PPT</title>
    <desc>Created with Sketch.</desc>
    <g id="PPT" stroke="none" stroke-width="1" fill="none" fill-rule="evenodd">
        <g id="ppt" transform="translate(14.000000, 0.000000)" fill-rule="nonzero">
            <path d="M0,7.5757632 L0,192.424237 C0,196.363632 3.93870618,200 7.57443797,200 L165.425562,200 C169.364268,200 173,196.060605 173,192.424237 L173,43.9394422 L129.068225,0.303105528 L7.57422316,0 C3.63573179,0 0,3.9393953 0,7.5757632 Z" id="路径" fill="#FA5D40"></path>
            <path d="M129,0 L129,34.5 C129,38.3999945 132.964553,42 136.624125,42 L172,42 L129,0 L129,0 Z" id="路径" fill="#FFA9A9"></path>
            <path d="M74.71,146.08 L61.39,146.08 C61.93,142.48 62.11,139.33 62.11,134.47 L62.11,85.78 C62.11,81.46 61.93,78.22 61.39,74.17 C65.26,74.35 68.05,74.44 72.82,74.44 L91.63,74.44 C100.36,74.44 106.48,76.51 110.8,80.83 C114.49,84.43 116.38,89.83 116.38,96.31 C116.38,103.15 114.31,108.73 110.35,112.87 C105.94,117.28 99.82,119.35 91.18,119.35 L73.99,119.35 L73.99,134.38 C73.99,139.24 74.17,142.66 74.71,146.08 Z M73.99,109 L91.18,109 C99.46,109 103.96,104.59 103.96,96.67 C103.96,93.07 102.97,90.1 100.99,88.03 C98.92,85.78 95.95,84.79 91.18,84.79 L73.99,84.79 L73.99,109 Z" id="P" fill="#FFFFFF"></path>
        </g>
    </g>
</svg>