<?xml version="1.0" standalone="no"?><!DOCTYPE svg PUBLIC "-//W3C//DTD SVG 1.1//EN" "http://www.w3.org/Graphics/SVG/1.1/DTD/svg11.dtd">
<svg xmlns="http://www.w3.org/2000/svg" class="icon" viewBox="0 0 1024 1024"><defs><style></style></defs><path d="M412 205.133c-4.348.158-7.873.343-10.556.554C254.344 217.24 140 340.351 140 488.805v279.04c0 28.72 23.281 52 52 52h168c28.719 0 52-23.28 52-52v-168c0-28.718-23.281-52-52-52H244v-59.04c0-89.924 66.33-165.709 154.528-178.21 3.508-.497 7.982-.907 13.472-1.24V205.132zm472 0c-4.348.158-7.873.343-10.556.554C726.344 217.24 612 340.351 612 488.805v279.04c0 28.72 23.281 52 52 52h168c28.719 0 52-23.28 52-52v-168c0-28.718-23.281-52-52-52H716v-59.04c0-89.924 66.33-165.709 154.528-178.21 3.508-.497 7.982-.907 13.472-1.24V205.132z"></path></svg>