<?xml version="1.0" encoding="UTF-8"?>
<svg width="200px" height="200px" viewBox="0 0 200 200" version="1.1" xmlns="http://www.w3.org/2000/svg" xmlns:xlink="http://www.w3.org/1999/xlink">
    <!-- Generator: Sketch 57.1 (83088) - https://sketch.com -->
    <title>sketch</title>
    <desc>Created with Sketch.</desc>
    <g id="sketch" stroke="none" stroke-width="1" fill="none" fill-rule="evenodd">
        <g id="icon" transform="translate(14.000000, 0.000000)" fill-rule="nonzero">
            <path d="M0,7.5757632 L0,192.424237 C0,196.363632 3.93870618,200 7.57443797,200 L165.425562,200 C169.364268,200 173,196.060605 173,192.424237 L173,43.9394422 L129.068225,0.303105528 L7.57422316,0 C3.63573179,0 0,3.9393953 0,7.5757632 Z" id="路径" fill="#FDBA0D"></path>
            <path d="M129,0 L129,34.5 C129,38.3999945 132.964553,42 136.624125,42 L172,42 L129,0 L129,0 Z" id="路径" fill="#FFDEB2"></path>
            <path d="M83.5319441,148.20605 L60.5389444,105.472486 L44.9902776,93.6757158 L83.5319441,148.20605 Z M127.662806,93.6757158 L112.11414,105.472486 L89.1211398,148.20605 L127.662806,93.6757158 Z M108.243324,105.930325 L64.243273,105.930325 L86.2432986,148.378482 L108.243324,105.924379 L108.243324,105.930325 Z M61.216783,102.214104 L44.6216285,89.7930086 L54.7297484,78.2162384 L69.0535489,85.1135437 L61.2227289,102.214104 L61.216783,102.214104 Z M71.8362548,86.2254369 L64.243273,102.891943 L108.243324,102.891943 L100.662234,86.2432747 L71.8362548,86.2432747 L71.8362548,86.2254369 Z M111.257922,102.208158 L127.864969,89.7930086 L117.786579,78.2162384 L103.456832,85.1135437 L111.257922,102.231942 L111.257922,102.208158 Z M100.644396,83.181109 L71.8362548,83.181109 L57.8870494,76.3789389 L70.545983,71.0810949 L101.934668,71.0810949 L114.599548,76.3789389 L100.644396,83.181109 Z" id="形状" fill="#FFFFFF"></path>
        </g>
    </g>
</svg>