<?xml version="1.0" encoding="UTF-8"?>
<svg width="200px" height="200px" viewBox="0 0 200 200" version="1.1" xmlns="http://www.w3.org/2000/svg" xmlns:xlink="http://www.w3.org/1999/xlink">
    <!-- Generator: Sketch 57.1 (83088) - https://sketch.com -->
    <title>sql</title>
    <desc>Created with Sketch.</desc>
    <g id="sql" stroke="none" stroke-width="1" fill="none" fill-rule="evenodd">
        <g id="icon" transform="translate(14.000000, 0.000000)" fill-rule="nonzero">
            <path d="M7.66758867,0 C3.83378451,0 0,3.8278542 0,7.65559066 L0,192.344507 C0,196.172264 3.83380416,200 7.66758867,200 L165.332411,200 C169.166215,200 173,196.172244 173,192.344507 L173,43.5407058 L128.911291,0 L7.66749039,0 L7.66758867,0 Z" id="路径" fill="#5E89C1"></path>
            <path d="M129,0 L129,35.4395764 C129,39.2197979 132.780318,43 136.56052,43 L172,43 L129,0 L129,0 Z" id="路径" fill="#B9D8FF"></path>
            <path d="M73.64,112.725191 C73.64,116.490076 72.0668202,119.574809 68.9134997,121.98626 C65.7601791,124.39771 61.4582981,125.6 55.9939347,125.6 C52.9102239,125.6 50.0701472,125.235878 47.4876264,124.507634 C44.9120665,123.78626 42.7472041,122.989313 41,122.130534 L41,114.346565 L41.3758925,114.346565 C43.5894818,115.99542 46.060627,117.307634 48.7754063,118.276336 C51.4971465,119.245038 54.1005502,119.732824 56.5856174,119.732824 C59.6762892,119.732824 62.0987076,119.238168 63.8459117,118.255725 C65.5861548,117.273282 66.4562764,115.720611 66.4562764,113.60458 C66.4562764,111.983206 65.9898912,110.746565 65.043199,109.915267 C64.0965067,109.083969 62.2727319,108.369466 59.5788356,107.778626 C58.5834165,107.558779 57.2817147,107.29771 55.67373,107.00229 C54.0657454,106.70687 52.6039411,106.39084 51.2813564,106.040458 C47.6129239,105.078626 45.0164811,103.670229 43.4850672,101.815267 C41.9536532,99.9603053 41.1879463,97.6793893 41.1879463,94.9725191 C41.1879463,93.2755725 41.5499168,91.6748092 42.252975,90.1770992 C42.9699552,88.6793893 44.041945,87.3328244 45.4898273,86.1580153 C46.8820218,85.0038168 48.6640307,84.0832061 50.8219322,83.4099237 C52.9798337,82.7366412 55.3883301,82.4 58.0543826,82.4 C60.5464107,82.4 63.0732438,82.7022901 65.6279207,83.3068702 C68.1825976,83.9045802 70.3056942,84.6396947 71.9972105,85.4984733 L71.9972105,92.9183206 L71.628279,92.9183206 C69.832348,91.6129771 67.6535637,90.5137405 65.0849648,89.6137405 C62.516366,88.7206107 60.0034549,88.2671756 57.5323097,88.2671756 C54.9637108,88.2671756 52.7918874,88.7549618 51.0238004,89.7236641 C49.2557134,90.6854962 48.3647089,92.1351145 48.3647089,94.0519084 C48.3647089,95.748855 48.9007038,97.0267176 49.9726935,97.8923664 C51.0168394,98.751145 52.7153167,99.4587786 55.0542035,99.9946565 C56.3559053,100.290076 57.8037876,100.585496 59.4117722,100.880916 C61.0127959,101.176336 62.3562636,101.451145 63.4282534,101.691603 C66.6999104,102.426718 69.2197825,103.69771 70.9878695,105.49084 C72.7559565,107.31145 73.64,109.722901 73.64,112.725191 L73.64,112.725191 Z M113,140 L106.204167,140 L106.204167,120.464304 C104.111589,122.282678 102.02574,123.62787 99.9533472,124.513398 C97.8876833,125.398926 95.6470771,125.83831 93.2382572,125.83831 C88.4408032,125.83831 84.6189884,123.979377 81.7660845,120.268271 C78.906452,116.550405 77.48,111.426509 77.48,104.889825 C77.48,101.40179 77.9779125,98.326101 78.980466,95.6492374 C79.976291,92.9723738 81.3018147,90.7281346 82.9368517,88.9097601 C84.5247888,87.1522234 86.3953249,85.7799928 88.5350028,84.8133477 C90.6746808,83.8467025 92.9422012,83.36 95.3308354,83.36 C97.4974275,83.36 99.4150635,83.6033512 101.090472,84.0832939 C102.76588,84.5632367 104.468202,85.2797709 106.204167,86.2261368 L106.634794,84.4821196 L112.993271,84.4821196 L112.993271,140 L113,140 Z M106.28,114.282872 L106.28,91.398342 C104.371007,90.5557599 102.687809,89.9625821 101.216721,89.6255493 C99.7456337,89.2885164 98.1513852,89.12 96.4339758,89.12 C92.4449334,89.12 89.4069662,90.4546501 87.3200744,93.1172095 C85.2400248,95.7865096 84.2,99.4601676 84.2,104.144924 C84.2,108.876865 85.041599,112.51682 86.7179548,115.058048 C88.3943105,117.606016 91.0354261,118.88 94.6344593,118.88 C96.6460861,118.88 98.6508708,118.455339 100.662498,117.592535 C102.674125,116.736471 104.542064,115.637744 106.28,114.282872 L106.28,114.282872 Z M130.28,124.64 L123.56,124.64 L123.56,68 L130.28,68 L130.28,124.64 Z" id="形状" fill="#FFFFFF"></path>
        </g>
    </g>
</svg>