<?xml version="1.0" standalone="no"?><!DOCTYPE svg PUBLIC "-//W3C//DTD SVG 1.1//EN" "http://www.w3.org/Graphics/SVG/1.1/DTD/svg11.dtd">
<svg xmlns="http://www.w3.org/2000/svg" class="icon" viewBox="0 0 1024 1024"><defs><style></style></defs><path d="M552.545 560H72a8 8 0 01-8-8v-80a8 8 0 018-8h220.18c-9.49-9.775-17.235-20.379-23.392-31.965-11.614-21.98-17.273-46.945-17.273-76.485 0-34.512 6.75-65.842 20.251-92.895 13.203-26.556 32.958-49.332 58.57-67.732C376.199 162.102 441.32 144 513.588 144c79.02 0 144.339 21.284 188.713 61.665 31.667 28.644 52.315 66.837 59.661 110.3.695 3.88 1.29 9.25 1.985 16.013v.995c0 5.57-4.566 10.145-10.125 10.145h-72.765c-4.765 0-9.034-3.382-9.927-8.156-1.49-7.758-2.978-13.725-4.269-17.803-6.452-20.489-17.173-38.193-31.766-52.614-28.69-28.346-70.978-42.768-125.775-42.768-48.047 0-88.45 11.14-116.841 32.126-28.788 21.284-43.977 52.017-43.977 89.016 0 36.8 17.075 64.649 52.216 85.137 24.62 14.223 55.492 24.169 106.815 34.214 3.064.607 5.847 1.15 8.89 1.73H952a8 8 0 018 8v80a8 8 0 01-8 8H752.908a138.547 138.547 0 0113.323 20.826C778.242 603.8 784 630.356 784 662.184c0 33.617-6.651 64.45-19.655 91.502-12.906 26.855-32.065 50.128-57.08 69.025C657.827 860.208 587.246 880 503.064 880c-78.423 0-144.735-18.4-191.79-53.21-40.402-29.938-64.227-69.92-70.68-118.755-.198-1.492-.396-3.382-.595-5.67v-.994c0-5.57 4.566-10.145 10.126-10.145h79.713c4.468 0 8.538 3.083 9.729 7.46.993 3.779 1.886 6.763 2.68 8.95 10.523 29.74 30.575 53.212 59.661 69.523 29.484 16.51 66.511 24.964 110.19 24.964 54.897 0 100.065-12.532 130.54-36.402 28.094-21.98 43.58-53.51 43.58-88.817 0-39.784-17.472-68.826-53.308-89.016-14.593-8.156-32.164-15.019-55.194-21.484-7.736-2.163-15.797-4.223-25.172-6.404z"></path></svg>