<?xml version="1.0" standalone="no"?><!DOCTYPE svg PUBLIC "-//W3C//DTD SVG 1.1//EN" "http://www.w3.org/Graphics/SVG/1.1/DTD/svg11.dtd">
<svg xmlns="http://www.w3.org/2000/svg" class="icon" viewBox="0 0 1024 1024"><defs><style></style></defs><path d="M188 188v648h648V188H188zm-44-76h736c17.673 0 32 14.327 32 32v736c0 17.673-14.327 32-32 32H144c-17.673 0-32-14.327-32-32V144c0-17.673 14.327-32 32-32z"></path><path d="M616.227 366.26l-157.21 218.01-71.244-98.796a31.9 31.9 0 00-25.868-13.26h-46.907c-6.517 0-10.288 7.415-6.467 12.714L433.147 657.74c12.75 17.681 38.99 17.681 51.738 0L695.47 365.714c3.821-5.3.05-12.714-6.467-12.714h-46.907a31.9 31.9 0 00-25.868 13.26"></path></svg>