<?xml version="1.0" standalone="no"?><!DOCTYPE svg PUBLIC "-//W3C//DTD SVG 1.1//EN" "http://www.w3.org/Graphics/SVG/1.1/DTD/svg11.dtd">
<svg xmlns="http://www.w3.org/2000/svg" class="icon" viewBox="0 0 1024 1024"><defs><style></style></defs><path d="M280 321v103.124c0 9.04-10.517 14.168-17.528 8.501L71.146 281.501c-5.528-4.318-5.528-12.684 0-17.002l191.326-151.124c7.146-5.667 17.528-.54 17.528 8.5V225h333c189.986 0 344 154.014 344 344S802.986 913 613 913H458.728a8 8 0 01-8-8v-80a8 8 0 018-8H613c136.967 0 248-111.033 248-248 0-136.967-111.033-248-248-248H280z"></path></svg>